<?xml version="1.0" encoding="UTF-8"?>
<svg xmlns="http://www.w3.org/2000/svg" width="310" height="378" viewBox="-3 -34.25 309.98 377.63">
<path d="M 14 340.38 L 14 0" fill="none" stroke="#c8c8c8" stroke-width="0.6" stroke-linecap="round" stroke-linejoin="round"/>
<path d="M 42 340.38 L 42 0" fill="none" stroke="#c8c8c8" stroke-width="0.6" stroke-linecap="round" stroke-linejoin="round"/>
<path d="M 70 340.38 L 70 0" fill="none" stroke="#c8c8c8" stroke-width="0.6" stroke-linecap="round" stroke-linejoin="round"/>
<path d="M 98 340.38 L 98 0" fill="none" stroke="#c8c8c8" stroke-width="0.6" stroke-linecap="round" stroke-linejoin="round"/>
<path d="M 126 340.38 L 126 0" fill="none" stroke="#c8c8c8" stroke-width="0.6" stroke-linecap="round" stroke-linejoin="round"/>
<path d="M 154 340.38 L 154 0" fill="none" stroke="#c8c8c8" stroke-width="0.6" stroke-linecap="round" stroke-linejoin="round"/>
<path d="M 182 340.38 L 182 0" fill="none" stroke="#c8c8c8" stroke-width="0.6" stroke-linecap="round" stroke-linejoin="round"/>
<path d="M 210 340.38 L 210 0" fill="none" stroke="#c8c8c8" stroke-width="0.6" stroke-linecap="round" stroke-linejoin="round"/>
<path d="M 238 340.38 L 238 0" fill="none" stroke="#c8c8c8" stroke-width="0.6" stroke-linecap="round" stroke-linejoin="round"/>
<path d="M 266 340.38 L 266 0" fill="none" stroke="#c8c8c8" stroke-width="0.6" stroke-linecap="round" stroke-linejoin="round"/>
<path d="M 0 338.55 L 274.4 338.55" fill="none" stroke="#c8c8c8" stroke-width="0.6" stroke-linecap="round" stroke-linejoin="round"/>
<path d="M 0 320.25 L 274.4 320.25" fill="none" stroke="#c8c8c8" stroke-width="0.6" stroke-linecap="round" stroke-linejoin="round"/>
<path d="M 0 301.95 L 274.4 301.95" fill="none" stroke="#c8c8c8" stroke-width="0.6" stroke-linecap="round" stroke-linejoin="round"/>
<path d="M 0 283.65 L 274.4 283.65" fill="none" stroke="#c8c8c8" stroke-width="0.6" stroke-linecap="round" stroke-linejoin="round"/>
<path d="M 0 265.35 L 274.4 265.35" fill="none" stroke="#c8c8c8" stroke-width="0.6" stroke-linecap="round" stroke-linejoin="round"/>
<path d="M 0 247.05 L 274.4 247.05" fill="none" stroke="#c8c8c8" stroke-width="0.6" stroke-linecap="round" stroke-linejoin="round"/>
<path d="M 0 228.75 L 274.4 228.75" fill="none" stroke="#c8c8c8" stroke-width="0.6" stroke-linecap="round" stroke-linejoin="round"/>
<path d="M 0 210.45 L 274.4 210.45" fill="none" stroke="#c8c8c8" stroke-width="0.6" stroke-linecap="round" stroke-linejoin="round"/>
<path d="M 0 192.15 L 274.4 192.15" fill="none" stroke="#c8c8c8" stroke-width="0.6" stroke-linecap="round" stroke-linejoin="round"/>
<path d="M 0 173.85 L 274.4 173.85" fill="none" stroke="#c8c8c8" stroke-width="0.6" stroke-linecap="round" stroke-linejoin="round"/>
<path d="M 0 155.55 L 274.4 155.55" fill="none" stroke="#c8c8c8" stroke-width="0.6" stroke-linecap="round" stroke-linejoin="round"/>
<path d="M 0 137.25 L 274.4 137.25" fill="none" stroke="#c8c8c8" stroke-width="0.6" stroke-linecap="round" stroke-linejoin="round"/>
<path d="M 0 118.95 L 274.4 118.95" fill="none" stroke="#c8c8c8" stroke-width="0.6" stroke-linecap="round" stroke-linejoin="round"/>
<path d="M 0 100.65 L 274.4 100.65" fill="none" stroke="#c8c8c8" stroke-width="0.6" stroke-linecap="round" stroke-linejoin="round"/>
<path d="M 0 82.35 L 274.4 82.35" fill="none" stroke="#c8c8c8" stroke-width="0.6" stroke-linecap="round" stroke-linejoin="round"/>
<path d="M 0 64.05 L 274.4 64.05" fill="none" stroke="#c8c8c8" stroke-width="0.6" stroke-linecap="round" stroke-linejoin="round"/>
<path d="M 0 45.75 L 274.4 45.75" fill="none" stroke="#c8c8c8" stroke-width="0.6" stroke-linecap="round" stroke-linejoin="round"/>
<path d="M 0 27.45 L 274.4 27.45" fill="none" stroke="#c8c8c8" stroke-width="0.6" stroke-linecap="round" stroke-linejoin="round"/>
<path d="M 0 9.15 L 274.4 9.15" fill="none" stroke="#c8c8c8" stroke-width="0.6" stroke-linecap="round" stroke-linejoin="round"/>
<path d="M 0 210.45 L 286.4 210.45" fill="none" stroke="#000" stroke-width="1.1" stroke-linecap="round" stroke-linejoin="round"/>
<path d="M 279.9 206.88 L 286.4 210.45 L 279.9 214.03" fill="none" stroke="#000" stroke-width="1.1" stroke-linecap="round" stroke-linejoin="round"/>
<path d="M 126 340.38 L 126 -12" fill="none" stroke="#000" stroke-width="1.1" stroke-linecap="round" stroke-linejoin="round"/>
<path d="M 122.42 -5.5 L 126 -12 L 129.57 -5.5" fill="none" stroke="#000" stroke-width="1.1" stroke-linecap="round" stroke-linejoin="round"/>
<path d="M 14 208.25 L 14 212.65" fill="none" stroke="#000" stroke-width="0.9" stroke-linecap="round" stroke-linejoin="round"/>
<path d="M 42 208.25 L 42 212.65" fill="none" stroke="#000" stroke-width="0.9" stroke-linecap="round" stroke-linejoin="round"/>
<path d="M 70 208.25 L 70 212.65" fill="none" stroke="#000" stroke-width="0.9" stroke-linecap="round" stroke-linejoin="round"/>
<path d="M 98 208.25 L 98 212.65" fill="none" stroke="#000" stroke-width="0.9" stroke-linecap="round" stroke-linejoin="round"/>
<path d="M 154 208.25 L 154 212.65" fill="none" stroke="#000" stroke-width="0.9" stroke-linecap="round" stroke-linejoin="round"/>
<path d="M 182 208.25 L 182 212.65" fill="none" stroke="#000" stroke-width="0.9" stroke-linecap="round" stroke-linejoin="round"/>
<path d="M 210 208.25 L 210 212.65" fill="none" stroke="#000" stroke-width="0.9" stroke-linecap="round" stroke-linejoin="round"/>
<path d="M 238 208.25 L 238 212.65" fill="none" stroke="#000" stroke-width="0.9" stroke-linecap="round" stroke-linejoin="round"/>
<path d="M 266 208.25 L 266 212.65" fill="none" stroke="#000" stroke-width="0.9" stroke-linecap="round" stroke-linejoin="round"/>
<path d="M 14 207.45 L 14 213.45" fill="none" stroke="#000" stroke-width="0.9" stroke-linecap="round" stroke-linejoin="round"/>
<path d="M 70 207.45 L 70 213.45" fill="none" stroke="#000" stroke-width="0.9" stroke-linecap="round" stroke-linejoin="round"/>
<path d="M 182 207.45 L 182 213.45" fill="none" stroke="#000" stroke-width="0.9" stroke-linecap="round" stroke-linejoin="round"/>
<path d="M 238 207.45 L 238 213.45" fill="none" stroke="#000" stroke-width="0.9" stroke-linecap="round" stroke-linejoin="round"/>
<path d="M 123.8 338.55 L 128.2 338.55" fill="none" stroke="#000" stroke-width="0.9" stroke-linecap="round" stroke-linejoin="round"/>
<path d="M 123.8 320.25 L 128.2 320.25" fill="none" stroke="#000" stroke-width="0.9" stroke-linecap="round" stroke-linejoin="round"/>
<path d="M 123.8 301.95 L 128.2 301.95" fill="none" stroke="#000" stroke-width="0.9" stroke-linecap="round" stroke-linejoin="round"/>
<path d="M 123.8 283.65 L 128.2 283.65" fill="none" stroke="#000" stroke-width="0.9" stroke-linecap="round" stroke-linejoin="round"/>
<path d="M 123.8 265.35 L 128.2 265.35" fill="none" stroke="#000" stroke-width="0.9" stroke-linecap="round" stroke-linejoin="round"/>
<path d="M 123.8 247.05 L 128.2 247.05" fill="none" stroke="#000" stroke-width="0.9" stroke-linecap="round" stroke-linejoin="round"/>
<path d="M 123.8 228.75 L 128.2 228.75" fill="none" stroke="#000" stroke-width="0.9" stroke-linecap="round" stroke-linejoin="round"/>
<path d="M 123.8 192.15 L 128.2 192.15" fill="none" stroke="#000" stroke-width="0.9" stroke-linecap="round" stroke-linejoin="round"/>
<path d="M 123.8 173.85 L 128.2 173.85" fill="none" stroke="#000" stroke-width="0.9" stroke-linecap="round" stroke-linejoin="round"/>
<path d="M 123.8 155.55 L 128.2 155.55" fill="none" stroke="#000" stroke-width="0.9" stroke-linecap="round" stroke-linejoin="round"/>
<path d="M 123.8 137.25 L 128.2 137.25" fill="none" stroke="#000" stroke-width="0.9" stroke-linecap="round" stroke-linejoin="round"/>
<path d="M 123.8 118.95 L 128.2 118.95" fill="none" stroke="#000" stroke-width="0.9" stroke-linecap="round" stroke-linejoin="round"/>
<path d="M 123.8 100.65 L 128.2 100.65" fill="none" stroke="#000" stroke-width="0.9" stroke-linecap="round" stroke-linejoin="round"/>
<path d="M 123.8 82.35 L 128.2 82.35" fill="none" stroke="#000" stroke-width="0.9" stroke-linecap="round" stroke-linejoin="round"/>
<path d="M 123.8 64.05 L 128.2 64.05" fill="none" stroke="#000" stroke-width="0.9" stroke-linecap="round" stroke-linejoin="round"/>
<path d="M 123.8 45.75 L 128.2 45.75" fill="none" stroke="#000" stroke-width="0.9" stroke-linecap="round" stroke-linejoin="round"/>
<path d="M 123.8 27.45 L 128.2 27.45" fill="none" stroke="#000" stroke-width="0.9" stroke-linecap="round" stroke-linejoin="round"/>
<path d="M 123.8 9.15 L 128.2 9.15" fill="none" stroke="#000" stroke-width="0.9" stroke-linecap="round" stroke-linejoin="round"/>
<path d="M 123 320.25 L 129 320.25" fill="none" stroke="#000" stroke-width="0.9" stroke-linecap="round" stroke-linejoin="round"/>
<path d="M 123 247.05 L 129 247.05" fill="none" stroke="#000" stroke-width="0.9" stroke-linecap="round" stroke-linejoin="round"/>
<path d="M 123 173.85 L 129 173.85" fill="none" stroke="#000" stroke-width="0.9" stroke-linecap="round" stroke-linejoin="round"/>
<path d="M 123 137.25 L 129 137.25" fill="none" stroke="#000" stroke-width="0.9" stroke-linecap="round" stroke-linejoin="round"/>
<path d="M 123 100.65 L 129 100.65" fill="none" stroke="#000" stroke-width="0.9" stroke-linecap="round" stroke-linejoin="round"/>
<path d="M 123 64.05 L 129 64.05" fill="none" stroke="#000" stroke-width="0.9" stroke-linecap="round" stroke-linejoin="round"/>
<path d="M 123 27.45 L 129 27.45" fill="none" stroke="#000" stroke-width="0.9" stroke-linecap="round" stroke-linejoin="round"/>
<path d="M 123 283.65 L 129 283.65" fill="none" stroke="#000" stroke-width="0.9" stroke-linecap="round" stroke-linejoin="round"/>
<path d="M 0 283.64 L 0.25 283.64 L 0.5 283.64 L 0.75 283.64 L 1 283.64 L 1.25 283.64 L 1.5 283.64 L 1.75 283.64 L 2 283.64 L 2.25 283.64 L 2.5 283.63 L 2.75 283.63 L 3 283.63 L 3.25 283.63 L 3.5 283.63 L 3.75 283.63 L 4 283.63 L 4.25 283.63 L 4.5 283.63 L 4.75 283.63 L 5 283.63 L 5.25 283.63 L 5.5 283.63 L 5.75 283.63 L 6 283.63 L 6.25 283.63 L 6.5 283.63 L 6.75 283.63 L 7 283.63 L 7.25 283.63 L 7.5 283.63 L 7.75 283.63 L 8 283.63 L 8.25 283.63 L 8.5 283.63 L 8.75 283.63 L 9 283.63 L 9.25 283.63 L 9.5 283.63 L 9.75 283.63 L 10 283.63 L 10.25 283.63 L 10.5 283.63 L 10.75 283.63 L 11 283.63 L 11.25 283.63 L 11.5 283.62 L 11.75 283.62 L 12 283.62 L 12.25 283.62 L 12.5 283.62 L 12.75 283.62 L 13 283.62 L 13.25 283.62 L 13.5 283.62 L 13.75 283.62 L 14 283.62 L 14.25 283.62 L 14.5 283.62 L 14.75 283.62 L 15 283.62 L 15.25 283.62 L 15.5 283.62 L 15.75 283.62 L 16 283.62 L 16.25 283.62 L 16.5 283.62 L 16.75 283.62 L 17 283.62 L 17.25 283.61 L 17.5 283.61 L 17.75 283.61 L 18 283.61 L 18.25 283.61 L 18.5 283.61 L 18.75 283.61 L 19 283.61 L 19.25 283.61 L 19.5 283.61 L 19.75 283.61 L 20 283.61 L 20.25 283.61 L 20.5 283.61 L 20.75 283.61 L 21 283.61 L 21.25 283.61 L 21.5 283.6 L 21.75 283.6 L 22 283.6 L 22.25 283.6 L 22.5 283.6 L 22.75 283.6 L 23 283.6 L 23.25 283.6 L 23.5 283.6 L 23.75 283.6 L 24 283.6 L 24.25 283.6 L 24.5 283.6 L 24.75 283.6 L 25 283.59 L 25.25 283.59 L 25.5 283.59 L 25.75 283.59 L 26 283.59 L 26.25 283.59 L 26.5 283.59 L 26.75 283.59 L 27 283.59 L 27.25 283.59 L 27.5 283.59 L 27.75 283.59 L 28 283.58 L 28.25 283.58 L 28.5 283.58 L 28.75 283.58 L 29 283.58 L 29.25 283.58 L 29.5 283.58 L 29.75 283.58 L 30 283.58 L 30.25 283.58 L 30.5 283.57 L 30.75 283.57 L 31 283.57 L 31.25 283.57 L 31.5 283.57 L 31.75 283.57 L 32 283.57 L 32.25 283.57 L 32.5 283.57 L 32.75 283.56 L 33 283.56 L 33.25 283.56 L 33.5 283.56 L 33.75 283.56 L 34 283.56 L 34.25 283.56 L 34.5 283.55 L 34.75 283.55 L 35 283.55 L 35.25 283.55 L 35.5 283.55 L 35.75 283.55 L 36 283.55 L 36.25 283.54 L 36.5 283.54 L 36.75 283.54 L 37 283.54 L 37.25 283.54 L 37.5 283.54 L 37.75 283.54 L 38 283.53 L 38.25 283.53 L 38.5 283.53 L 38.75 283.53 L 39 283.53 L 39.25 283.53 L 39.5 283.52 L 39.75 283.52 L 40 283.52 L 40.25 283.52 L 40.5 283.52 L 40.75 283.51 L 41 283.51 L 41.25 283.51 L 41.5 283.51 L 41.75 283.51 L 42 283.5 L 42.25 283.5 L 42.5 283.5 L 42.75 283.5 L 43 283.49 L 43.25 283.49 L 43.5 283.49 L 43.75 283.49 L 44 283.49 L 44.25 283.48 L 44.5 283.48 L 44.75 283.48 L 45 283.48 L 45.25 283.47 L 45.5 283.47 L 45.75 283.47 L 46 283.47 L 46.25 283.46 L 46.5 283.46 L 46.75 283.46 L 47 283.45 L 47.25 283.45 L 47.5 283.45 L 47.75 283.45 L 48 283.44 L 48.25 283.44 L 48.5 283.44 L 48.75 283.43 L 49 283.43 L 49.25 283.43 L 49.5 283.42 L 49.75 283.42 L 50 283.42 L 50.25 283.41 L 50.5 283.41 L 50.75 283.41 L 51 283.4 L 51.25 283.4 L 51.5 283.4 L 51.75 283.39 L 52 283.39 L 52.25 283.39 L 52.5 283.38 L 52.75 283.38 L 53 283.37 L 53.25 283.37 L 53.5 283.37 L 53.75 283.36 L 54 283.36 L 54.25 283.35 L 54.5 283.35 L 54.75 283.35 L 55 283.34 L 55.25 283.34 L 55.5 283.33 L 55.75 283.33 L 56 283.32 L 56.25 283.32 L 56.5 283.31 L 56.75 283.31 L 57 283.3 L 57.25 283.3 L 57.5 283.29 L 57.75 283.29 L 58 283.28 L 58.25 283.28 L 58.5 283.27 L 58.75 283.27 L 59 283.26 L 59.25 283.26 L 59.5 283.25 L 59.75 283.24 L 60 283.24 L 60.25 283.23 L 60.5 283.23 L 60.75 283.22 L 61 283.21 L 61.25 283.21 L 61.5 283.2 L 61.75 283.19 L 62 283.19 L 62.25 283.18 L 62.5 283.17 L 62.75 283.17 L 63 283.16 L 63.25 283.15 L 63.5 283.15 L 63.75 283.14 L 64 283.13 L 64.25 283.12 L 64.5 283.12 L 64.75 283.11 L 65 283.1 L 65.25 283.09 L 65.5 283.08 L 65.75 283.08 L 66 283.07 L 66.25 283.06 L 66.5 283.05 L 66.75 283.04 L 67 283.03 L 67.25 283.03 L 67.5 283.02 L 67.75 283.01 L 68 283 L 68.25 282.99 L 68.5 282.98 L 68.75 282.97 L 69 282.96 L 69.25 282.95 L 69.5 282.94 L 69.75 282.93 L 70 282.92 L 70.25 282.91 L 70.5 282.9 L 70.75 282.89 L 71 282.87 L 71.25 282.86 L 71.5 282.85 L 71.75 282.84 L 72 282.83 L 72.25 282.82 L 72.5 282.8 L 72.75 282.79 L 73 282.78 L 73.25 282.77 L 73.5 282.75 L 73.75 282.74 L 74 282.73 L 74.25 282.72 L 74.5 282.7 L 74.75 282.69 L 75 282.67 L 75.25 282.66 L 75.5 282.65 L 75.75 282.63 L 76 282.62 L 76.25 282.6 L 76.5 282.59 L 76.75 282.57 L 77 282.56 L 77.25 282.54 L 77.5 282.52 L 77.75 282.51 L 78 282.49 L 78.25 282.47 L 78.5 282.46 L 78.75 282.44 L 79 282.42 L 79.25 282.4 L 79.5 282.39 L 79.75 282.37 L 80 282.35 L 80.25 282.33 L 80.5 282.31 L 80.75 282.29 L 81 282.27 L 81.25 282.25 L 81.5 282.23 L 81.75 282.21 L 82 282.19 L 82.25 282.17 L 82.5 282.15 L 82.75 282.13 L 83 282.1 L 83.25 282.08 L 83.5 282.06 L 83.75 282.04 L 84 282.01 L 84.25 281.99 L 84.5 281.97 L 84.75 281.94 L 85 281.92 L 85.25 281.89 L 85.5 281.87 L 85.75 281.84 L 86 281.81 L 86.25 281.79 L 86.5 281.76 L 86.75 281.73 L 87 281.71 L 87.25 281.68 L 87.5 281.65 L 87.75 281.62 L 88 281.59 L 88.25 281.56 L 88.5 281.53 L 88.75 281.5 L 89 281.47 L 89.25 281.44 L 89.5 281.4 L 89.75 281.37 L 90 281.34 L 90.25 281.31 L 90.5 281.27 L 90.75 281.24 L 91 281.2 L 91.25 281.17 L 91.5 281.13 L 91.75 281.09 L 92 281.06 L 92.25 281.02 L 92.5 280.98 L 92.75 280.94 L 93 280.9 L 93.25 280.86 L 93.5 280.82 L 93.75 280.78 L 94 280.74 L 94.25 280.7 L 94.5 280.66 L 94.75 280.61 L 95 280.57 L 95.25 280.53 L 95.5 280.48 L 95.75 280.43 L 96 280.39 L 96.25 280.34 L 96.5 280.29 L 96.75 280.24 L 97 280.19 L 97.25 280.14 L 97.5 280.09 L 97.75 280.04 L 98 279.99 L 98.25 279.94 L 98.5 279.88 L 98.75 279.83 L 99 279.77 L 99.25 279.72 L 99.5 279.66 L 99.75 279.6 L 100 279.54 L 100.25 279.48 L 100.5 279.42 L 100.75 279.36 L 101 279.3 L 101.25 279.24 L 101.5 279.17 L 101.75 279.11 L 102 279.04 L 102.25 278.98 L 102.5 278.91 L 102.75 278.84 L 103 278.77 L 103.25 278.7 L 103.5 278.63 L 103.75 278.56 L 104 278.48 L 104.25 278.41 L 104.5 278.33 L 104.75 278.26 L 105 278.18 L 105.25 278.1 L 105.5 278.02 L 105.75 277.94 L 106 277.85 L 106.25 277.77 L 106.5 277.68 L 106.75 277.6 L 107 277.51 L 107.25 277.42 L 107.5 277.33 L 107.75 277.24 L 108 277.15 L 108.25 277.05 L 108.5 276.96 L 108.75 276.86 L 109 276.76 L 109.25 276.66 L 109.5 276.56 L 109.75 276.46 L 110 276.35 L 110.25 276.25 L 110.5 276.14 L 110.75 276.03 L 111 275.92 L 111.25 275.81 L 111.5 275.7 L 111.75 275.58 L 112 275.47 L 112.25 275.35 L 112.5 275.23 L 112.75 275.11 L 113 274.98 L 113.25 274.86 L 113.5 274.73 L 113.75 274.6 L 114 274.47 L 114.25 274.34 L 114.5 274.2 L 114.75 274.06 L 115 273.93 L 115.25 273.79 L 115.5 273.64 L 115.75 273.5 L 116 273.35 L 116.25 273.2 L 116.5 273.05 L 116.75 272.9 L 117 272.74 L 117.25 272.58 L 117.5 272.42 L 117.75 272.26 L 118 272.1 L 118.25 271.93 L 118.5 271.76 L 118.75 271.59 L 119 271.41 L 119.25 271.23 L 119.5 271.06 L 119.75 270.87 L 120 270.69 L 120.25 270.5 L 120.5 270.31 L 120.75 270.12 L 121 269.92 L 121.25 269.72 L 121.5 269.52 L 121.75 269.32 L 122 269.11 L 122.25 268.9 L 122.5 268.68 L 122.75 268.47 L 123 268.25 L 123.25 268.03 L 123.5 267.8 L 123.75 267.57 L 124 267.34 L 124.25 267.1 L 124.5 266.86 L 124.75 266.62 L 125 266.37 L 125.25 266.12 L 125.5 265.87 L 125.75 265.61 L 126 265.35 L 126.25 265.09 L 126.5 264.82 L 126.75 264.54 L 127 264.27 L 127.25 263.99 L 127.5 263.7 L 127.75 263.41 L 128 263.12 L 128.25 262.82 L 128.5 262.52 L 128.75 262.22 L 129 261.91 L 129.25 261.59 L 129.5 261.27 L 129.75 260.95 L 130 260.62 L 130.25 260.29 L 130.5 259.95 L 130.75 259.6 L 131 259.26 L 131.25 258.9 L 131.5 258.55 L 131.75 258.18 L 132 257.81 L 132.25 257.44 L 132.5 257.06 L 132.75 256.68 L 133 256.29 L 133.25 255.89 L 133.5 255.49 L 133.75 255.08 L 134 254.67 L 134.25 254.25 L 134.5 253.82 L 134.75 253.39 L 135 252.95 L 135.25 252.51 L 135.5 252.06 L 135.75 251.6 L 136 251.14 L 136.25 250.66 L 136.5 250.19 L 136.75 249.7 L 137 249.21 L 137.25 248.71 L 137.5 248.21 L 137.75 247.69 L 138 247.17 L 138.25 246.65 L 138.5 246.11 L 138.75 245.57 L 139 245.02 L 139.25 244.46 L 139.5 243.89 L 139.75 243.31 L 140 242.73 L 140.25 242.14 L 140.5 241.54 L 140.75 240.93 L 141 240.31 L 141.25 239.68 L 141.5 239.05 L 141.75 238.4 L 142 237.74 L 142.25 237.08 L 142.5 236.41 L 142.75 235.72 L 143 235.03 L 143.25 234.33 L 143.5 233.61 L 143.75 232.89 L 144 232.15 L 144.25 231.41 L 144.5 230.65 L 144.75 229.88 L 145 229.11 L 145.25 228.32 L 145.5 227.51 L 145.75 226.7 L 146 225.88 L 146.25 225.04 L 146.5 224.19 L 146.75 223.33 L 147 222.46 L 147.25 221.57 L 147.5 220.68 L 147.75 219.76 L 148 218.84 L 148.25 217.9 L 148.5 216.95 L 148.75 215.98 L 149 215.01 L 149.25 214.01 L 149.5 213 L 149.75 211.98 L 150 210.94 L 150.25 209.89 L 150.5 208.82 L 150.75 207.74 L 151 206.64 L 151.25 205.53 L 151.5 204.4 L 151.75 203.25 L 152 202.09 L 152.25 200.91 L 152.5 199.71 L 152.75 198.49 L 153 197.26 L 153.25 196.01 L 153.5 194.74 L 153.75 193.46 L 154 192.15 L 154.25 190.83 L 154.5 189.48 L 154.75 188.12 L 155 186.74 L 155.25 185.33 L 155.5 183.91 L 155.75 182.47 L 156 181 L 156.25 179.52 L 156.5 178.01 L 156.75 176.48 L 157 174.93 L 157.25 173.36 L 157.5 171.76 L 157.75 170.14 L 158 168.5 L 158.25 166.83 L 158.5 165.14 L 158.75 163.42 L 159 161.68 L 159.25 159.92 L 159.5 158.13 L 159.75 156.31 L 160 154.47 L 160.25 152.6 L 160.5 150.7 L 160.75 148.78 L 161 146.83 L 161.25 144.85 L 161.5 142.84 L 161.75 140.8 L 162 138.73 L 162.25 136.63 L 162.5 134.51 L 162.75 132.35 L 163 130.16 L 163.25 127.93 L 163.5 125.68 L 163.75 123.39 L 164 121.08 L 164.25 118.72 L 164.5 116.34 L 164.75 113.91 L 165 111.46 L 165.25 108.96 L 165.5 106.44 L 165.75 103.87 L 166 101.27 L 166.25 98.63 L 166.5 95.95 L 166.75 93.23 L 167 90.48 L 167.25 87.68 L 167.5 84.85 L 167.75 81.97 L 168 79.05 L 168.25 76.09 L 168.5 73.08 L 168.75 70.04 L 169 66.94 L 169.25 63.81 L 169.5 60.63 L 169.75 57.4 L 170 54.12 L 170.25 50.8 L 170.5 47.43 L 170.75 44.01 L 171 40.54 L 171.25 37.03 L 171.5 33.46 L 171.75 29.83 L 172 26.16 L 172.25 22.43 L 172.5 18.65 L 172.75 14.82 L 173 10.93 L 173.25 6.98 L 173.5 2.97" fill="none" stroke="#000" stroke-width="1.6" stroke-linecap="round" stroke-linejoin="round"/>
<circle cx="126" cy="265.35" r="3.2" fill="#000"/>
<circle cx="154" cy="192.15" r="3.2" fill="#000"/>
<path d="M296.27 211.11Q296.18 211.02 296.18 210.95Q296.24 210.54 296.65 209.91Q297.35 208.85 298.42 208.68Q298.63 208.65 298.73 208.65Q299.26 208.65 299.7 208.92Q300.14 209.19 300.34 209.6Q300.53 209.34 300.58 209.28Q301.13 208.65 301.85 208.65Q302.47 208.65 302.85 209Q303.23 209.36 303.23 209.87Q303.23 210.33 302.97 210.65Q302.71 210.96 302.27 210.96Q301.99 210.96 301.81 210.8Q301.63 210.63 301.63 210.36Q301.63 209.67 302.38 209.42Q302.38 209.4 302.21 209.31Q302.06 209.22 301.78 209.22Q301.58 209.22 301.49 209.25Q300.92 209.49 300.65 210.24Q300.61 210.36 300.22 211.91Q299.83 213.47 299.8 213.66Q299.75 213.89 299.75 214.11Q299.75 214.47 299.96 214.68Q300.17 214.89 300.52 214.89Q301.15 214.89 301.66 214.36Q302.17 213.83 302.35 213.18Q302.39 213.03 302.44 213.01Q302.48 212.99 302.68 212.99Q302.96 212.99 302.96 213.11Q302.96 213.12 302.93 213.27Q302.68 214.2 301.88 214.89Q301.18 215.45 300.4 215.45Q299.35 215.45 298.81 214.5Q298.37 215.18 297.7 215.4Q297.56 215.43 297.31 215.43Q296.44 215.43 296.08 214.82Q295.93 214.56 295.93 214.22Q295.93 213.77 296.2 213.45Q296.47 213.14 296.89 213.14Q297.53 213.14 297.53 213.77Q297.53 214.32 297.01 214.58Q296.98 214.59 296.93 214.61Q296.89 214.64 296.86 214.65Q296.83 214.67 296.81 214.67L296.77 214.68Q296.77 214.73 296.99 214.82Q297.17 214.89 297.38 214.89Q297.92 214.89 298.31 214.22Q298.48 213.95 298.9 212.27Q298.99 211.92 299.09 211.5Q299.2 211.08 299.25 210.86Q299.3 210.63 299.32 210.59Q299.39 210.18 299.39 210Q299.39 209.64 299.2 209.43Q299 209.22 298.66 209.22Q297.98 209.22 297.49 209.74Q296.99 210.26 296.8 210.93Q296.77 211.07 296.73 211.09Q296.69 211.11 296.48 211.11Z" fill="#000"/>
<path d="M129.25 -26.46Q129.47 -26.46 129.62 -26.35Q129.77 -26.24 129.77 -26.05Q129.77 -25.85 129.03 -22.9Q128.3 -19.94 128.19 -19.66Q127.95 -18.92 127.42 -18.3Q126.89 -17.68 126.18 -17.32Q125.37 -16.93 124.67 -16.93Q123.53 -16.93 123.12 -17.64Q122.97 -17.86 122.97 -18.25Q122.97 -18.75 123.26 -19.04Q123.57 -19.32 123.92 -19.32Q124.58 -19.32 124.58 -18.7Q124.58 -18.14 124.05 -17.89Q124.02 -17.87 123.97 -17.85Q123.93 -17.82 123.9 -17.81Q123.87 -17.8 123.86 -17.8L123.81 -17.78Q123.86 -17.69 124.12 -17.59Q124.37 -17.5 124.61 -17.5H124.73Q124.98 -17.5 125.12 -17.52Q125.69 -17.69 126.19 -18.29Q126.7 -18.89 126.98 -19.73Q127.14 -20.23 127.14 -20.32Q127.14 -20.33 127.11 -20.31Q127.08 -20.29 127.02 -20.24Q126.47 -19.84 125.79 -19.84Q125.03 -19.84 124.53 -20.2Q124.03 -20.55 123.89 -21.23Q123.87 -21.34 123.87 -21.7Q123.87 -22.05 123.9 -22.25Q124.01 -22.89 124.59 -24.45Q124.92 -25.34 124.92 -25.68Q124.92 -25.89 124.88 -25.98Q124.84 -26.06 124.71 -26.06H124.64Q124.29 -26.06 123.98 -25.75Q123.5 -25.27 123.24 -24.3Q123.24 -24.29 123.23 -24.25Q123.21 -24.21 123.2 -24.21Q123.2 -24.2 123.18 -24.19Q123.17 -24.17 123.13 -24.17Q123.09 -24.17 123.06 -24.17Q123.03 -24.17 122.94 -24.17H122.73Q122.61 -24.29 122.69 -24.52Q123 -25.56 123.63 -26.15Q124.14 -26.63 124.7 -26.63Q125.33 -26.63 125.7 -26.28Q126.08 -25.94 126.08 -25.32Q126.05 -25.04 126.03 -25.01Q126.03 -24.92 125.81 -24.37Q125.19 -22.7 125.07 -21.92Q125.06 -21.8 125.06 -21.57Q125.06 -21 125.24 -20.7Q125.42 -20.41 125.89 -20.41Q126.24 -20.41 126.55 -20.59Q126.86 -20.77 127.01 -20.94Q127.17 -21.11 127.41 -21.41Q127.41 -21.43 127.69 -22.54Q127.97 -23.66 128.26 -24.81Q128.56 -25.97 128.61 -26.06Q128.81 -26.46 129.25 -26.46Z" fill="#000"/>
<path d="M8.05 220.68H14.44Q14.61 220.77 14.61 220.9Q14.61 221.03 14.44 221.12H8.05Q7.89 221.04 7.89 220.9Q7.89 220.76 8.05 220.68Z M20.61 223.65Q20.46 223.62 19.19 223.62Q17.87 223.62 17.72 223.65H17.62V223.14H17.96Q18.43 223.13 18.54 223.09Q18.63 223.07 18.68 222.98Q18.69 222.96 18.69 222.39V221.84H15.84V221.33L17.5 218.79Q19.18 216.24 19.2 216.22Q19.23 216.2 19.43 216.2H19.63L19.7 216.27V221.33H20.71V221.84H19.7V222.4Q19.7 222.85 19.7 222.92Q19.71 223 19.76 223.06Q19.85 223.13 20.39 223.14H20.71V223.65ZM18.75 221.33V217.66L16.34 221.32L17.54 221.33Z" fill="#000" stroke="#fff" stroke-width="2.6" stroke-linejoin="round" paint-order="stroke"/>
<path d="M64.05 220.68H70.44Q70.61 220.77 70.61 220.9Q70.61 221.03 70.44 221.12H64.05Q63.9 221.04 63.9 220.9Q63.9 220.76 64.05 220.68Z M72.74 218.93Q72.43 218.93 72.25 218.73Q72.08 218.53 72.08 218.25Q72.08 217.46 72.68 216.89Q73.28 216.32 74.11 216.32Q75.06 216.32 75.68 216.84Q76.3 217.35 76.45 218.17Q76.47 218.37 76.47 218.53Q76.47 219.17 76.08 219.73Q75.77 220.2 74.84 221Q74.44 221.34 73.74 222.01L73.09 222.63L73.93 222.64Q75.65 222.64 75.76 222.58Q75.81 222.57 75.87 222.35Q75.92 222.23 76.03 221.6V221.57H76.47V221.6L76.16 223.62V223.65H72.08V223.44Q72.08 223.22 72.1 223.19Q72.11 223.17 73.02 222.14Q74.22 220.81 74.56 220.38Q75.3 219.38 75.3 218.55Q75.3 217.82 74.92 217.33Q74.54 216.84 73.86 216.84Q73.22 216.84 72.83 217.41Q72.8 217.46 72.76 217.53Q72.73 217.59 72.73 217.6Q72.73 217.61 72.78 217.61Q73.06 217.61 73.23 217.81Q73.4 218.01 73.4 218.27Q73.4 218.55 73.22 218.74Q73.04 218.93 72.74 218.93Z" fill="#000" stroke="#fff" stroke-width="2.6" stroke-linejoin="round" paint-order="stroke"/>
<path d="M180.46 218.93Q180.15 218.93 179.98 218.73Q179.8 218.53 179.8 218.25Q179.8 217.46 180.4 216.89Q181 216.32 181.84 216.32Q182.78 216.32 183.4 216.84Q184.02 217.35 184.17 218.17Q184.19 218.37 184.19 218.53Q184.19 219.17 183.8 219.73Q183.5 220.2 182.56 221Q182.16 221.34 181.46 222.01L180.81 222.63L181.65 222.64Q183.38 222.64 183.49 222.58Q183.53 222.57 183.59 222.35Q183.64 222.23 183.75 221.6V221.57H184.19V221.6L183.88 223.62V223.65H179.8V223.44Q179.8 223.22 179.82 223.19Q179.83 223.17 180.75 222.14Q181.94 220.81 182.29 220.38Q183.02 219.38 183.02 218.55Q183.02 217.82 182.64 217.33Q182.26 216.84 181.58 216.84Q180.94 216.84 180.55 217.41Q180.53 217.46 180.48 217.53Q180.45 217.59 180.45 217.6Q180.45 217.61 180.5 217.61Q180.78 217.61 180.95 217.81Q181.12 218.01 181.12 218.27Q181.12 218.55 180.94 218.74Q180.76 218.93 180.46 218.93Z" fill="#000" stroke="#fff" stroke-width="2.6" stroke-linejoin="round" paint-order="stroke"/>
<path d="M240.33 223.65Q240.18 223.62 238.91 223.62Q237.59 223.62 237.44 223.65H237.34V223.14H237.68Q238.15 223.13 238.26 223.09Q238.35 223.07 238.4 222.98Q238.41 222.96 238.41 222.39V221.84H235.56V221.33L237.22 218.79Q238.9 216.24 238.92 216.22Q238.95 216.2 239.16 216.2H239.35L239.42 216.27V221.33H240.43V221.84H239.42V222.4Q239.42 222.85 239.42 222.92Q239.43 223 239.49 223.06Q239.57 223.13 240.11 223.14H240.43V223.65ZM238.47 221.33V217.66L236.06 221.32L237.26 221.33Z" fill="#000" stroke="#fff" stroke-width="2.6" stroke-linejoin="round" paint-order="stroke"/>
<path d="M107.02 320.82H113.41Q113.58 320.91 113.58 321.04Q113.58 321.17 113.41 321.26H107.02Q106.87 321.18 106.87 321.04Q106.87 320.9 107.02 320.82Z M118.6 317.18Q118.36 316.94 117.92 316.91Q117.15 316.91 116.63 317.57Q116.12 318.28 116.12 319.79L116.13 319.83L116.22 319.69Q116.67 319.03 117.44 319.03Q117.94 319.03 118.33 319.24Q118.75 319.48 119.08 319.96Q119.41 320.45 119.49 321.01Q119.52 321.14 119.52 321.48V321.68Q119.52 321.93 119.46 322.15Q119.33 322.8 118.78 323.37Q118.31 323.87 117.72 323.99Q117.55 324.03 117.28 324.03Q117.07 324.03 116.91 324Q115.9 323.8 115.43 322.81Q114.96 321.81 114.96 320.35Q114.96 319.16 115.38 318.27Q115.8 317.38 116.55 316.88Q117.14 316.47 117.83 316.47Q118.47 316.47 118.86 316.81Q119.25 317.15 119.25 317.74Q119.25 318.02 119.09 318.18Q118.93 318.35 118.67 318.35Q118.41 318.35 118.25 318.19Q118.09 318.04 118.09 317.76Q118.09 317.27 118.6 317.18ZM118.12 319.82Q117.81 319.42 117.33 319.42Q116.92 319.42 116.67 319.68Q116.13 320.22 116.13 321.42Q116.13 322.39 116.26 322.77Q116.37 323.1 116.63 323.33Q116.9 323.56 117.26 323.56Q117.82 323.56 118.12 323.14Q118.28 322.91 118.33 322.59Q118.37 322.27 118.37 321.67V321.49V321.32Q118.37 320.69 118.33 320.37Q118.28 320.05 118.12 319.82Z" fill="#000" stroke="#fff" stroke-width="2.6" stroke-linejoin="round" paint-order="stroke"/>
<path d="M107.02 247.62H113.41Q113.58 247.71 113.58 247.84Q113.58 247.97 113.41 248.06H107.02Q106.87 247.99 106.87 247.84Q106.87 247.7 107.02 247.62Z M115.71 245.87Q115.4 245.87 115.23 245.68Q115.05 245.48 115.05 245.19Q115.05 244.4 115.65 243.83Q116.25 243.27 117.08 243.27Q118.03 243.27 118.65 243.78Q119.27 244.29 119.42 245.11Q119.44 245.31 119.44 245.48Q119.44 246.12 119.05 246.68Q118.75 247.14 117.81 247.94Q117.42 248.28 116.71 248.95L116.06 249.57L116.9 249.58Q118.62 249.58 118.73 249.53Q118.78 249.51 118.84 249.29Q118.89 249.17 119 248.55V248.51H119.44V248.55L119.13 250.56V250.59H115.05V250.38Q115.05 250.16 115.07 250.13Q115.08 250.11 116 249.09Q117.19 247.75 117.54 247.33Q118.27 246.32 118.27 245.49Q118.27 244.76 117.89 244.27Q117.51 243.78 116.83 243.78Q116.19 243.78 115.8 244.36Q115.78 244.4 115.73 244.48Q115.7 244.53 115.7 244.54Q115.7 244.55 115.75 244.55Q116.03 244.55 116.2 244.75Q116.37 244.95 116.37 245.21Q116.37 245.49 116.19 245.68Q116.01 245.87 115.71 245.87Z" fill="#000" stroke="#fff" stroke-width="2.6" stroke-linejoin="round" paint-order="stroke"/>
<path d="M115.71 172.67Q115.4 172.67 115.23 172.47Q115.05 172.28 115.05 171.99Q115.05 171.2 115.65 170.63Q116.25 170.07 117.08 170.07Q118.03 170.07 118.65 170.58Q119.27 171.09 119.42 171.91Q119.44 172.11 119.44 172.28Q119.44 172.91 119.05 173.48Q118.75 173.94 117.81 174.74Q117.42 175.08 116.71 175.75L116.06 176.37L116.9 176.38Q118.62 176.38 118.73 176.32Q118.78 176.31 118.84 176.09Q118.89 175.97 119 175.35V175.31H119.44V175.35L119.13 177.36V177.39H115.05V177.18Q115.05 176.96 115.07 176.93Q115.08 176.91 116 175.88Q117.19 174.55 117.54 174.12Q118.27 173.12 118.27 172.29Q118.27 171.56 117.89 171.07Q117.51 170.58 116.83 170.58Q116.19 170.58 115.8 171.16Q115.78 171.2 115.73 171.28Q115.7 171.33 115.7 171.34Q115.7 171.35 115.75 171.35Q116.03 171.35 116.2 171.55Q116.37 171.75 116.37 172.01Q116.37 172.29 116.19 172.48Q116.01 172.67 115.71 172.67Z" fill="#000" stroke="#fff" stroke-width="2.6" stroke-linejoin="round" paint-order="stroke"/>
<path d="M119.58 140.79Q119.43 140.76 118.16 140.76Q116.84 140.76 116.69 140.79H116.59V140.29H116.93Q117.4 140.28 117.51 140.23Q117.6 140.21 117.65 140.12Q117.66 140.1 117.66 139.53V138.98H114.81V138.47L116.47 135.93Q118.15 133.38 118.17 133.37Q118.2 133.34 118.41 133.34H118.6L118.67 133.41V138.47H119.68V138.98H118.67V139.54Q118.67 139.99 118.67 140.07Q118.68 140.14 118.73 140.2Q118.82 140.28 119.36 140.29H119.68V140.79ZM117.72 138.47V134.8L115.31 138.46L116.51 138.47Z" fill="#000" stroke="#fff" stroke-width="2.6" stroke-linejoin="round" paint-order="stroke"/>
<path d="M118.6 97.58Q118.36 97.34 117.92 97.31Q117.15 97.31 116.63 97.97Q116.12 98.68 116.12 100.19L116.13 100.23L116.22 100.09Q116.67 99.43 117.44 99.43Q117.94 99.43 118.33 99.64Q118.75 99.88 119.08 100.36Q119.41 100.85 119.49 101.41Q119.52 101.54 119.52 101.88V102.08Q119.52 102.33 119.46 102.55Q119.33 103.2 118.78 103.77Q118.31 104.27 117.72 104.39Q117.55 104.43 117.28 104.43Q117.07 104.43 116.91 104.4Q115.9 104.2 115.43 103.21Q114.96 102.21 114.96 100.75Q114.96 99.56 115.38 98.67Q115.8 97.78 116.55 97.28Q117.14 96.87 117.83 96.87Q118.47 96.87 118.86 97.21Q119.25 97.55 119.25 98.14Q119.25 98.42 119.09 98.58Q118.93 98.75 118.67 98.75Q118.41 98.75 118.25 98.59Q118.09 98.44 118.09 98.16Q118.09 97.67 118.6 97.58ZM118.12 100.22Q117.81 99.83 117.33 99.83Q116.92 99.83 116.67 100.08Q116.13 100.62 116.13 101.82Q116.13 102.8 116.26 103.17Q116.37 103.5 116.63 103.73Q116.9 103.96 117.26 103.96Q117.82 103.96 118.12 103.54Q118.28 103.31 118.33 102.99Q118.37 102.67 118.37 102.07V101.89V101.72Q118.37 101.09 118.33 100.77Q118.28 100.45 118.12 100.22Z" fill="#000" stroke="#fff" stroke-width="2.6" stroke-linejoin="round" paint-order="stroke"/>
<path d="M116.39 63.91Q115.85 63.55 115.56 63.17Q115.27 62.78 115.27 62.16Q115.27 61.69 115.45 61.37Q115.69 60.87 116.16 60.57Q116.62 60.27 117.23 60.27Q117.98 60.27 118.53 60.66Q119.08 61.05 119.21 61.66Q119.22 61.73 119.22 61.93Q119.22 62.17 119.2 62.26Q119.03 62.98 118.2 63.51Q118.17 63.52 118.14 63.54Q118.1 63.57 118.09 63.59L118.06 63.6Q118.68 64.02 118.7 64.04Q119.53 64.7 119.53 65.68Q119.53 66.57 118.87 67.2Q118.22 67.83 117.24 67.83Q115.89 67.83 115.25 66.84Q114.97 66.45 114.97 65.89Q114.97 65.63 115 65.55Q115.16 64.71 116.05 64.12Q116.12 64.07 116.25 64Q116.38 63.92 116.39 63.91ZM118.58 61.95Q118.58 61.48 118.27 61.15Q117.97 60.82 117.53 60.73Q117.45 60.72 117.16 60.72Q116.58 60.72 116.18 61.11Q115.91 61.37 115.91 61.72Q115.91 62.19 116.3 62.47Q116.36 62.52 117.01 62.93L117.65 63.35Q117.66 63.34 117.79 63.25Q117.92 63.17 117.99 63.1Q118.58 62.63 118.58 61.95ZM115.68 65.86Q115.68 66.51 116.15 66.94Q116.62 67.36 117.25 67.36Q117.7 67.36 118.07 67.17Q118.44 66.99 118.62 66.69Q118.81 66.4 118.81 66.08Q118.81 65.61 118.43 65.25Q118.34 65.16 117.51 64.62Q117.36 64.52 117.18 64.41Q117 64.29 116.9 64.23L116.81 64.17L116.68 64.24Q115.98 64.69 115.77 65.34Q115.68 65.62 115.68 65.86Z" fill="#000" stroke="#fff" stroke-width="2.6" stroke-linejoin="round" paint-order="stroke"/>
<path d="M113.58 30.99Q113.39 30.96 111.83 30.96Q110.29 30.96 110.1 30.99H109.97V30.49H110.25Q110.89 30.49 111.08 30.45Q111.17 30.44 111.34 30.32V24.63Q111.32 24.63 111.25 24.67Q110.75 24.87 110.12 24.88H109.91V24.37H110.12Q111.05 24.34 111.66 23.95Q111.86 23.84 112 23.7Q112.03 23.67 112.14 23.67Q112.25 23.67 112.32 23.73V27.02L112.33 30.32Q112.5 30.49 113.05 30.49H113.41H113.7V30.99Z M115.56 24.56Q116.17 23.67 117.24 23.67Q118.04 23.67 118.65 24.22Q118.94 24.5 119.15 24.96Q119.56 25.88 119.56 27.47Q119.56 29.18 119.09 30.08Q118.78 30.72 118.19 31Q117.72 31.23 117.25 31.23Q115.98 31.23 115.4 30.08Q114.93 29.18 114.93 27.47Q114.93 26.45 115.07 25.78Q115.2 25.12 115.56 24.56ZM118.03 24.43Q117.71 24.07 117.25 24.07Q116.79 24.07 116.46 24.43Q116.22 24.68 116.13 25.04Q116.04 25.4 116.02 26.3Q116.02 26.36 116.01 26.72Q116.01 27.09 116.01 27.33Q116.01 28.39 116.03 28.8Q116.07 29.57 116.16 29.91Q116.25 30.24 116.49 30.49Q116.79 30.82 117.25 30.82Q117.7 30.82 118 30.49Q118.24 30.24 118.33 29.91Q118.42 29.57 118.46 28.8Q118.48 28.39 118.48 27.33Q118.48 27.09 118.48 26.72Q118.47 26.36 118.47 26.3Q118.45 25.4 118.36 25.04Q118.27 24.68 118.03 24.43Z" fill="#000" stroke="#fff" stroke-width="2.6" stroke-linejoin="round" paint-order="stroke"/>
<path d="M133.08 284.22H139.47Q139.63 284.31 139.63 284.44Q139.63 284.57 139.47 284.66H133.08Q132.92 284.58 132.92 284.44Q132.92 284.3 133.08 284.22Z M145.64 287.19Q145.49 287.16 144.22 287.16Q142.9 287.16 142.75 287.19H142.65V286.69H142.99Q143.46 286.68 143.57 286.63Q143.66 286.61 143.7 286.52Q143.72 286.5 143.72 285.93V285.38H140.87V284.87L142.53 282.33Q144.21 279.78 144.23 279.77Q144.25 279.75 144.46 279.75H144.66L144.73 279.81V284.87H145.74V285.38H144.73V285.94Q144.73 286.39 144.73 286.47Q144.74 286.54 144.79 286.6Q144.88 286.68 145.42 286.69H145.74V287.19ZM143.78 284.87V281.2L141.37 284.86L142.57 284.87Z" fill="#000" stroke="#fff" stroke-width="2.6" stroke-linejoin="round" paint-order="stroke"/>
<path d="M118.93 215.87H119.13Q119.59 215.87 119.71 215.88Q120.89 216.05 121.59 216.91Q122.3 217.77 122.3 219.09Q122.3 220.71 121.26 222.17Q120.57 223.15 119.6 223.76Q118.34 224.58 117.07 224.58Q115.79 224.58 114.93 223.76Q114.02 222.87 114.02 221.39Q114.02 220.97 114.03 220.85Q114.25 219.2 115.43 217.82Q115.76 217.44 116.15 217.1Q117.48 216 118.93 215.87ZM121.07 218.6Q121.07 217.69 120.65 217.1Q120.24 216.51 119.51 216.37Q119.34 216.33 119.13 216.33Q118.88 216.33 118.69 216.38Q117.95 216.51 117.29 217.05Q117.01 217.27 116.63 217.71Q116.07 218.42 115.69 219.53Q115.31 220.64 115.31 221.72Q115.31 222.59 115.65 223.19Q115.99 223.79 116.6 223.99Q116.91 224.09 117.19 224.09Q117.92 224.09 118.63 223.63Q120.06 222.69 120.72 220.56Q121.07 219.42 121.07 218.6Z" fill="#000" stroke="#fff" stroke-width="2.6" stroke-linejoin="round" paint-order="stroke"/>
</svg>
