<?xml version="1.0" encoding="UTF-8"?>
<svg xmlns="http://www.w3.org/2000/svg" width="340" height="248" viewBox="-21 -27.45 340.38 248.09">
<path d="M 38 199.2 L 38 7.2" fill="none" stroke="#c8c8c8" stroke-width="0.6" stroke-linecap="round" stroke-linejoin="round"/>
<path d="M 76 199.2 L 76 7.2" fill="none" stroke="#c8c8c8" stroke-width="0.6" stroke-linecap="round" stroke-linejoin="round"/>
<path d="M 114 199.2 L 114 7.2" fill="none" stroke="#c8c8c8" stroke-width="0.6" stroke-linecap="round" stroke-linejoin="round"/>
<path d="M 152 199.2 L 152 7.2" fill="none" stroke="#c8c8c8" stroke-width="0.6" stroke-linecap="round" stroke-linejoin="round"/>
<path d="M 190 199.2 L 190 7.2" fill="none" stroke="#c8c8c8" stroke-width="0.6" stroke-linecap="round" stroke-linejoin="round"/>
<path d="M 228 199.2 L 228 7.2" fill="none" stroke="#c8c8c8" stroke-width="0.6" stroke-linecap="round" stroke-linejoin="round"/>
<path d="M 266 199.2 L 266 7.2" fill="none" stroke="#c8c8c8" stroke-width="0.6" stroke-linecap="round" stroke-linejoin="round"/>
<path d="M 0 175.2 L 285 175.2" fill="none" stroke="#c8c8c8" stroke-width="0.6" stroke-linecap="round" stroke-linejoin="round"/>
<path d="M 0 151.2 L 285 151.2" fill="none" stroke="#c8c8c8" stroke-width="0.6" stroke-linecap="round" stroke-linejoin="round"/>
<path d="M 0 127.2 L 285 127.2" fill="none" stroke="#c8c8c8" stroke-width="0.6" stroke-linecap="round" stroke-linejoin="round"/>
<path d="M 0 103.2 L 285 103.2" fill="none" stroke="#c8c8c8" stroke-width="0.6" stroke-linecap="round" stroke-linejoin="round"/>
<path d="M 0 79.2 L 285 79.2" fill="none" stroke="#c8c8c8" stroke-width="0.6" stroke-linecap="round" stroke-linejoin="round"/>
<path d="M 0 55.2 L 285 55.2" fill="none" stroke="#c8c8c8" stroke-width="0.6" stroke-linecap="round" stroke-linejoin="round"/>
<path d="M 0 31.2 L 285 31.2" fill="none" stroke="#c8c8c8" stroke-width="0.6" stroke-linecap="round" stroke-linejoin="round"/>
<path d="M 0 199.2 L 298.8 199.2" fill="none" stroke="#000" stroke-width="1.1" stroke-linecap="round" stroke-linejoin="round"/>
<path d="M 292.3 195.63 L 298.8 199.2 L 292.3 202.78" fill="none" stroke="#000" stroke-width="1.1" stroke-linecap="round" stroke-linejoin="round"/>
<path d="M 0 199.2 L 0 -5.2" fill="none" stroke="#000" stroke-width="1.1" stroke-linecap="round" stroke-linejoin="round"/>
<path d="M -3.58 1.3 L 0 -5.2 L 3.58 1.3" fill="none" stroke="#000" stroke-width="1.1" stroke-linecap="round" stroke-linejoin="round"/>
<path d="M 38 196.2 L 38 202.2" fill="none" stroke="#000" stroke-width="0.9" stroke-linecap="round" stroke-linejoin="round"/>
<path d="M 76 196.2 L 76 202.2" fill="none" stroke="#000" stroke-width="0.9" stroke-linecap="round" stroke-linejoin="round"/>
<path d="M 114 196.2 L 114 202.2" fill="none" stroke="#000" stroke-width="0.9" stroke-linecap="round" stroke-linejoin="round"/>
<path d="M 152 196.2 L 152 202.2" fill="none" stroke="#000" stroke-width="0.9" stroke-linecap="round" stroke-linejoin="round"/>
<path d="M 190 196.2 L 190 202.2" fill="none" stroke="#000" stroke-width="0.9" stroke-linecap="round" stroke-linejoin="round"/>
<path d="M 228 196.2 L 228 202.2" fill="none" stroke="#000" stroke-width="0.9" stroke-linecap="round" stroke-linejoin="round"/>
<path d="M 266 196.2 L 266 202.2" fill="none" stroke="#000" stroke-width="0.9" stroke-linecap="round" stroke-linejoin="round"/>
<path d="M -3 175.2 L 3 175.2" fill="none" stroke="#000" stroke-width="0.9" stroke-linecap="round" stroke-linejoin="round"/>
<path d="M -3 151.2 L 3 151.2" fill="none" stroke="#000" stroke-width="0.9" stroke-linecap="round" stroke-linejoin="round"/>
<path d="M -3 127.2 L 3 127.2" fill="none" stroke="#000" stroke-width="0.9" stroke-linecap="round" stroke-linejoin="round"/>
<path d="M -3 103.2 L 3 103.2" fill="none" stroke="#000" stroke-width="0.9" stroke-linecap="round" stroke-linejoin="round"/>
<path d="M -3 79.2 L 3 79.2" fill="none" stroke="#000" stroke-width="0.9" stroke-linecap="round" stroke-linejoin="round"/>
<path d="M -3 55.2 L 3 55.2" fill="none" stroke="#000" stroke-width="0.9" stroke-linecap="round" stroke-linejoin="round"/>
<path d="M -3 31.2 L 3 31.2" fill="none" stroke="#000" stroke-width="0.9" stroke-linecap="round" stroke-linejoin="round"/>
<path d="M 0 170.4 L 285 12" fill="none" stroke="#000" stroke-width="1.5" stroke-linecap="round" stroke-linejoin="round"/>
<circle cx="38" cy="163.2" r="3.4" fill="#000"/>
<circle cx="85.5" cy="115.2" r="3.4" fill="#000"/>
<circle cx="104.5" cy="79.2" r="3.4" fill="#000"/>
<circle cx="123.5" cy="115.2" r="3.4" fill="#000"/>
<circle cx="133" cy="97.2" r="3.4" fill="#000"/>
<circle cx="180.5" cy="79.2" r="3.4" fill="#000"/>
<circle cx="237.5" cy="38.4" r="3.4" fill="#000"/>
<path d="M308.67 199.86Q308.58 199.77 308.58 199.7Q308.64 199.29 309.05 198.66Q309.75 197.6 310.81 197.43Q311.03 197.4 311.13 197.4Q311.66 197.4 312.1 197.67Q312.54 197.94 312.74 198.35Q312.93 198.09 312.98 198.03Q313.53 197.4 314.25 197.4Q314.87 197.4 315.25 197.75Q315.63 198.11 315.63 198.62Q315.63 199.08 315.37 199.4Q315.11 199.71 314.67 199.71Q314.38 199.71 314.21 199.55Q314.03 199.38 314.03 199.11Q314.03 198.42 314.78 198.17Q314.78 198.15 314.61 198.06Q314.46 197.97 314.18 197.97Q313.98 197.97 313.89 198Q313.32 198.24 313.05 198.99Q313 199.11 312.62 200.66Q312.23 202.22 312.19 202.41Q312.15 202.64 312.15 202.86Q312.15 203.22 312.36 203.43Q312.57 203.64 312.92 203.64Q313.55 203.64 314.06 203.11Q314.56 202.58 314.75 201.93Q314.79 201.78 314.84 201.76Q314.88 201.74 315.07 201.74Q315.36 201.74 315.36 201.86Q315.36 201.87 315.33 202.02Q315.07 202.95 314.28 203.64Q313.57 204.2 312.8 204.2Q311.75 204.2 311.2 203.25Q310.77 203.93 310.1 204.15Q309.96 204.18 309.7 204.18Q308.84 204.18 308.48 203.57Q308.32 203.31 308.32 202.97Q308.32 202.52 308.6 202.2Q308.87 201.89 309.29 201.89Q309.93 201.89 309.93 202.52Q309.93 203.07 309.41 203.33Q309.38 203.34 309.33 203.36Q309.29 203.39 309.25 203.4Q309.23 203.42 309.21 203.42L309.17 203.43Q309.17 203.48 309.39 203.57Q309.57 203.64 309.78 203.64Q310.32 203.64 310.71 202.97Q310.88 202.7 311.3 201.02Q311.38 200.67 311.49 200.25Q311.6 199.83 311.65 199.61Q311.7 199.38 311.72 199.34Q311.79 198.93 311.79 198.75Q311.79 198.39 311.6 198.18Q311.4 197.97 311.06 197.97Q310.38 197.97 309.88 198.49Q309.39 199.01 309.19 199.68Q309.17 199.82 309.13 199.84Q309.09 199.86 308.88 199.86Z" fill="#000"/>
<path d="M3.25 -19.66Q3.46 -19.66 3.61 -19.55Q3.76 -19.44 3.76 -19.24Q3.76 -19.05 3.03 -16.09Q2.29 -13.14 2.19 -12.85Q1.95 -12.12 1.42 -11.5Q0.88 -10.87 0.18 -10.51Q-0.63 -10.12 -1.33 -10.12Q-2.47 -10.12 -2.88 -10.84Q-3.03 -11.05 -3.03 -11.44Q-3.03 -11.95 -2.75 -12.24Q-2.43 -12.52 -2.08 -12.52Q-1.42 -12.52 -1.42 -11.89Q-1.42 -11.34 -1.95 -11.08Q-1.98 -11.07 -2.02 -11.05Q-2.07 -11.02 -2.1 -11.01Q-2.13 -10.99 -2.14 -10.99L-2.19 -10.98Q-2.14 -10.89 -1.88 -10.78Q-1.63 -10.69 -1.4 -10.69H-1.27Q-1.02 -10.69 -0.88 -10.72Q-0.31 -10.89 0.2 -11.49Q0.71 -12.09 0.97 -12.93Q1.14 -13.42 1.14 -13.51Q1.14 -13.53 1.11 -13.51Q1.08 -13.48 1.02 -13.44Q0.46 -13.03 -0.21 -13.03Q-0.98 -13.03 -1.47 -13.39Q-1.96 -13.75 -2.11 -14.43Q-2.13 -14.53 -2.13 -14.89Q-2.13 -15.25 -2.1 -15.45Q-1.99 -16.09 -1.41 -17.65Q-1.08 -18.54 -1.08 -18.88Q-1.08 -19.09 -1.12 -19.18Q-1.15 -19.26 -1.29 -19.26H-1.36Q-1.71 -19.26 -2.02 -18.94Q-2.5 -18.46 -2.76 -17.5Q-2.76 -17.49 -2.77 -17.45Q-2.79 -17.41 -2.8 -17.41Q-2.8 -17.4 -2.82 -17.38Q-2.83 -17.37 -2.87 -17.37Q-2.91 -17.37 -2.94 -17.37Q-2.97 -17.37 -3.06 -17.37H-3.27Q-3.39 -17.49 -3.31 -17.71Q-3 -18.76 -2.37 -19.35Q-1.86 -19.83 -1.3 -19.83Q-0.67 -19.83 -0.3 -19.48Q0.08 -19.14 0.08 -18.52Q0.04 -18.24 0.03 -18.21Q0.03 -18.12 -0.19 -17.56Q-0.81 -15.9 -0.93 -15.12Q-0.94 -15 -0.94 -14.77Q-0.94 -14.2 -0.76 -13.9Q-0.58 -13.6 -0.1 -13.6Q0.24 -13.6 0.55 -13.78Q0.86 -13.96 1.01 -14.14Q1.17 -14.31 1.41 -14.61Q1.41 -14.62 1.69 -15.74Q1.96 -16.86 2.27 -18.01Q2.57 -19.17 2.61 -19.26Q2.8 -19.66 3.25 -19.66Z" fill="#000"/>
<path d="M36.32 207.95Q35.98 207.95 35.79 207.74Q35.6 207.52 35.6 207.21Q35.6 206.34 36.25 205.73Q36.91 205.11 37.82 205.11Q38.85 205.11 39.53 205.67Q40.21 206.22 40.36 207.12Q40.39 207.34 40.39 207.52Q40.39 208.22 39.97 208.83Q39.63 209.33 38.61 210.21Q38.18 210.58 37.41 211.31L36.7 211.98L37.62 212Q39.5 212 39.62 211.94Q39.67 211.92 39.74 211.68Q39.79 211.55 39.91 210.87V210.83H40.39V210.87L40.05 213.06V213.1H35.6V212.87Q35.6 212.63 35.62 212.6Q35.64 212.57 36.63 211.46Q37.94 210 38.31 209.54Q39.12 208.44 39.12 207.53Q39.12 206.74 38.7 206.21Q38.29 205.67 37.54 205.67Q36.85 205.67 36.42 206.3Q36.39 206.34 36.34 206.43Q36.31 206.49 36.31 206.5Q36.31 206.51 36.37 206.51Q36.67 206.51 36.85 206.73Q37.04 206.94 37.04 207.23Q37.04 207.53 36.84 207.74Q36.64 207.95 36.32 207.95Z" fill="#000" stroke="#fff" stroke-width="2.6" stroke-linejoin="round" paint-order="stroke"/>
<path d="M78.54 213.1Q78.38 213.06 77 213.06Q75.56 213.06 75.39 213.1H75.28V212.55H75.65Q76.17 212.54 76.29 212.49Q76.38 212.46 76.43 212.37Q76.44 212.34 76.44 211.72V211.12H73.34V210.57L75.15 207.8Q76.98 205.01 77.01 205Q77.03 204.98 77.26 204.98H77.48L77.55 205.05V210.57H78.65V211.12H77.55V211.73Q77.55 212.22 77.55 212.31Q77.56 212.39 77.62 212.45Q77.72 212.54 78.3 212.55H78.65V213.1ZM76.52 210.57V206.56L73.89 210.56L75.2 210.57Z" fill="#000" stroke="#fff" stroke-width="2.6" stroke-linejoin="round" paint-order="stroke"/>
<path d="M115.48 205.89Q115.21 205.62 114.73 205.59Q113.89 205.59 113.33 206.31Q112.76 207.09 112.76 208.73L112.78 208.78L112.87 208.62Q113.36 207.9 114.2 207.9Q114.76 207.9 115.18 208.13Q115.63 208.4 115.99 208.92Q116.35 209.45 116.45 210.06Q116.47 210.21 116.47 210.58V210.8Q116.47 211.07 116.41 211.31Q116.27 212.02 115.67 212.64Q115.15 213.18 114.52 213.32Q114.32 213.36 114.04 213.36Q113.81 213.36 113.63 213.33Q112.52 213.11 112.01 212.03Q111.5 210.94 111.5 209.34Q111.5 208.05 111.96 207.08Q112.42 206.1 113.23 205.56Q113.88 205.11 114.64 205.11Q115.33 205.11 115.76 205.48Q116.18 205.85 116.18 206.5Q116.18 206.8 116.01 206.98Q115.84 207.16 115.55 207.16Q115.26 207.16 115.09 206.99Q114.91 206.82 114.91 206.52Q114.91 205.98 115.48 205.89ZM114.95 208.77Q114.61 208.34 114.08 208.34Q113.64 208.34 113.36 208.61Q112.78 209.2 112.78 210.51Q112.78 211.58 112.92 211.98Q113.04 212.34 113.33 212.6Q113.62 212.85 114.01 212.85Q114.62 212.85 114.95 212.39Q115.13 212.14 115.18 211.79Q115.22 211.44 115.22 210.78V210.59V210.4Q115.22 209.72 115.18 209.37Q115.13 209.02 114.95 208.77Z" fill="#000" stroke="#fff" stroke-width="2.6" stroke-linejoin="round" paint-order="stroke"/>
<path d="M151.06 209.08Q150.48 208.7 150.16 208.28Q149.84 207.86 149.84 207.17Q149.84 206.66 150.03 206.31Q150.3 205.77 150.81 205.44Q151.32 205.11 151.98 205.11Q152.79 205.11 153.39 205.53Q153.99 205.96 154.14 206.63Q154.15 206.7 154.15 206.92Q154.15 207.18 154.12 207.28Q153.94 208.07 153.03 208.65Q153.01 208.66 152.97 208.68Q152.92 208.71 152.91 208.73L152.89 208.74Q153.56 209.2 153.58 209.22Q154.48 209.94 154.48 211.01Q154.48 211.98 153.77 212.67Q153.06 213.36 151.99 213.36Q150.51 213.36 149.82 212.28Q149.52 211.85 149.52 211.24Q149.52 210.96 149.54 210.87Q149.72 209.96 150.69 209.31Q150.76 209.26 150.91 209.18Q151.05 209.09 151.06 209.08ZM153.45 206.94Q153.45 206.43 153.12 206.07Q152.78 205.71 152.3 205.61Q152.22 205.6 151.9 205.6Q151.27 205.6 150.84 206.03Q150.54 206.31 150.54 206.69Q150.54 207.21 150.97 207.51Q151.03 207.57 151.74 208.01L152.43 208.47Q152.44 208.46 152.59 208.37Q152.73 208.28 152.8 208.2Q153.45 207.69 153.45 206.94ZM150.28 211.22Q150.28 211.92 150.8 212.39Q151.32 212.85 152 212.85Q152.49 212.85 152.89 212.64Q153.3 212.44 153.5 212.12Q153.7 211.8 153.7 211.46Q153.7 210.94 153.28 210.54Q153.19 210.45 152.29 209.86Q152.12 209.75 151.92 209.63Q151.72 209.5 151.62 209.43L151.52 209.37L151.38 209.44Q150.62 209.93 150.38 210.64Q150.28 210.95 150.28 211.22Z" fill="#000" stroke="#fff" stroke-width="2.6" stroke-linejoin="round" paint-order="stroke"/>
<path d="M188.99 213.1Q188.79 213.06 187.08 213.06Q185.4 213.06 185.2 213.1H185.06V212.55H185.37Q186.06 212.55 186.27 212.51Q186.36 212.5 186.56 212.37V206.16Q186.53 206.16 186.46 206.2Q185.91 206.42 185.22 206.43H185V205.88H185.22Q186.23 205.84 186.9 205.42Q187.12 205.3 187.28 205.14Q187.3 205.11 187.42 205.11Q187.54 205.11 187.62 205.18V208.77L187.64 212.37Q187.82 212.55 188.42 212.55H188.81H189.12V213.1Z M191.15 206.08Q191.82 205.11 192.99 205.11Q193.86 205.11 194.52 205.71Q194.85 206.02 195.08 206.52Q195.52 207.52 195.52 209.26Q195.52 211.12 195 212.1Q194.67 212.8 194.02 213.11Q193.52 213.36 193 213.36Q191.62 213.36 190.98 212.1Q190.47 211.12 190.47 209.26Q190.47 208.14 190.62 207.42Q190.77 206.69 191.15 206.08ZM193.85 205.94Q193.5 205.55 193 205.55Q192.5 205.55 192.14 205.94Q191.87 206.21 191.78 206.61Q191.68 207 191.66 207.98Q191.66 208.05 191.65 208.44Q191.64 208.84 191.64 209.1Q191.64 210.26 191.67 210.71Q191.72 211.55 191.81 211.92Q191.91 212.28 192.17 212.55Q192.5 212.91 193 212.91Q193.49 212.91 193.82 212.55Q194.08 212.28 194.18 211.92Q194.27 211.55 194.32 210.71Q194.34 210.26 194.34 209.1Q194.34 208.84 194.34 208.44Q194.33 208.05 194.33 207.98Q194.31 207 194.21 206.61Q194.12 206.21 193.85 205.94Z" fill="#000" stroke="#fff" stroke-width="2.6" stroke-linejoin="round" paint-order="stroke"/>
<path d="M226.99 213.1Q226.79 213.06 225.08 213.06Q223.4 213.06 223.2 213.1H223.06V212.55H223.37Q224.06 212.55 224.27 212.51Q224.36 212.5 224.56 212.37V206.16Q224.53 206.16 224.46 206.2Q223.91 206.42 223.22 206.43H223V205.88H223.22Q224.23 205.84 224.9 205.42Q225.12 205.3 225.28 205.14Q225.3 205.11 225.42 205.11Q225.54 205.11 225.62 205.18V208.77L225.64 212.37Q225.82 212.55 226.42 212.55H226.81H227.12V213.1Z M229.32 207.95Q228.98 207.95 228.79 207.74Q228.6 207.52 228.6 207.21Q228.6 206.34 229.25 205.73Q229.91 205.11 230.82 205.11Q231.85 205.11 232.53 205.67Q233.21 206.22 233.36 207.12Q233.39 207.34 233.39 207.52Q233.39 208.22 232.97 208.83Q232.63 209.33 231.61 210.21Q231.18 210.58 230.41 211.31L229.7 211.98L230.62 212Q232.5 212 232.62 211.94Q232.67 211.92 232.74 211.68Q232.79 211.55 232.91 210.87V210.83H233.39V210.87L233.05 213.06V213.1H228.6V212.87Q228.6 212.63 228.62 212.6Q228.64 212.57 229.63 211.46Q230.94 210 231.31 209.54Q232.12 208.44 232.12 207.53Q232.12 206.74 231.7 206.21Q231.29 205.67 230.54 205.67Q229.85 205.67 229.42 206.3Q229.39 206.34 229.34 206.43Q229.31 206.49 229.31 206.5Q229.31 206.51 229.37 206.51Q229.67 206.51 229.85 206.73Q230.04 206.94 230.04 207.23Q230.04 207.53 229.84 207.74Q229.64 207.95 229.32 207.95Z" fill="#000" stroke="#fff" stroke-width="2.6" stroke-linejoin="round" paint-order="stroke"/>
<path d="M264.99 213.1Q264.79 213.06 263.08 213.06Q261.4 213.06 261.2 213.1H261.06V212.55H261.37Q262.06 212.55 262.27 212.51Q262.36 212.5 262.56 212.37V206.16Q262.53 206.16 262.46 206.2Q261.91 206.42 261.22 206.43H261V205.88H261.22Q262.23 205.84 262.9 205.42Q263.12 205.3 263.28 205.14Q263.3 205.11 263.42 205.11Q263.54 205.11 263.62 205.18V208.77L263.64 212.37Q263.82 212.55 264.42 212.55H264.81H265.12V213.1Z M271.54 213.1Q271.38 213.06 270 213.06Q268.56 213.06 268.39 213.1H268.28V212.55H268.65Q269.17 212.54 269.29 212.49Q269.38 212.46 269.43 212.37Q269.44 212.34 269.44 211.72V211.12H266.34V210.57L268.15 207.8Q269.98 205.01 270.01 205Q270.03 204.98 270.26 204.98H270.48L270.55 205.05V210.57H271.65V211.12H270.55V211.73Q270.55 212.22 270.55 212.31Q270.56 212.39 270.62 212.45Q270.72 212.54 271.3 212.55H271.65V213.1ZM269.52 210.57V206.56L266.89 210.56L268.2 210.57Z" fill="#000" stroke="#fff" stroke-width="2.6" stroke-linejoin="round" paint-order="stroke"/>
<path d="M-10.68 173.92Q-11.02 173.92 -11.21 173.7Q-11.4 173.48 -11.4 173.17Q-11.4 172.31 -10.75 171.69Q-10.09 171.07 -9.18 171.07Q-8.15 171.07 -7.47 171.63Q-6.79 172.19 -6.64 173.09Q-6.61 173.3 -6.61 173.48Q-6.61 174.18 -7.03 174.79Q-7.37 175.3 -8.39 176.17Q-8.82 176.54 -9.59 177.28L-10.3 177.95L-9.38 177.96Q-7.5 177.96 -7.38 177.9Q-7.33 177.89 -7.26 177.65Q-7.21 177.52 -7.09 176.83V176.8H-6.61V176.83L-6.95 179.03V179.06H-11.4V178.84Q-11.4 178.6 -11.38 178.56Q-11.36 178.54 -10.37 177.42Q-9.06 175.97 -8.69 175.5Q-7.88 174.41 -7.88 173.5Q-7.88 172.7 -8.3 172.17Q-8.71 171.64 -9.46 171.64Q-10.15 171.64 -10.58 172.26Q-10.61 172.31 -10.66 172.39Q-10.69 172.45 -10.69 172.46Q-10.69 172.48 -10.63 172.48Q-10.33 172.48 -10.15 172.69Q-9.96 172.91 -9.96 173.2Q-9.96 173.5 -10.16 173.71Q-10.36 173.92 -10.68 173.92Z" fill="#000" stroke="#fff" stroke-width="2.6" stroke-linejoin="round" paint-order="stroke"/>
<path d="M-6.46 155.06Q-6.62 155.03 -8 155.03Q-9.44 155.03 -9.61 155.06H-9.72V154.51H-9.35Q-8.83 154.5 -8.71 154.45Q-8.62 154.43 -8.57 154.33Q-8.56 154.31 -8.56 153.68V153.08H-11.66V152.53L-9.85 149.76Q-8.02 146.98 -7.99 146.96Q-7.97 146.94 -7.74 146.94H-7.52L-7.45 147.01V152.53H-6.35V153.08H-7.45V153.7Q-7.45 154.19 -7.45 154.27Q-7.44 154.36 -7.38 154.42Q-7.28 154.5 -6.7 154.51H-6.35V155.06ZM-8.48 152.53V148.52L-11.11 152.52L-9.8 152.53Z" fill="#000" stroke="#fff" stroke-width="2.6" stroke-linejoin="round" paint-order="stroke"/>
<path d="M-7.52 123.85Q-7.79 123.59 -8.27 123.55Q-9.11 123.55 -9.67 124.27Q-10.24 125.05 -10.24 126.7L-10.22 126.74L-10.13 126.59Q-9.64 125.87 -8.8 125.87Q-8.24 125.87 -7.82 126.1Q-7.37 126.36 -7.01 126.89Q-6.65 127.42 -6.55 128.03Q-6.53 128.17 -6.53 128.54V128.76Q-6.53 129.04 -6.59 129.28Q-6.73 129.98 -7.33 130.61Q-7.85 131.15 -8.48 131.28Q-8.68 131.33 -8.96 131.33Q-9.19 131.33 -9.37 131.29Q-10.48 131.08 -10.99 129.99Q-11.5 128.9 -11.5 127.31Q-11.5 126.01 -11.04 125.04Q-10.58 124.07 -9.77 123.53Q-9.12 123.07 -8.36 123.07Q-7.67 123.07 -7.24 123.44Q-6.82 123.82 -6.82 124.46Q-6.82 124.76 -6.99 124.94Q-7.16 125.12 -7.45 125.12Q-7.74 125.12 -7.91 124.96Q-8.09 124.79 -8.09 124.49Q-8.09 123.95 -7.52 123.85ZM-8.05 126.73Q-8.39 126.3 -8.92 126.3Q-9.36 126.3 -9.64 126.58Q-10.22 127.16 -10.22 128.47Q-10.22 129.54 -10.08 129.95Q-9.96 130.31 -9.67 130.56Q-9.38 130.81 -8.99 130.81Q-8.38 130.81 -8.05 130.36Q-7.87 130.1 -7.82 129.76Q-7.78 129.41 -7.78 128.75V128.56V128.36Q-7.78 127.68 -7.82 127.33Q-7.87 126.98 -8.05 126.73Z" fill="#000" stroke="#fff" stroke-width="2.6" stroke-linejoin="round" paint-order="stroke"/>
<path d="M-9.94 103.04Q-10.52 102.66 -10.84 102.24Q-11.16 101.82 -11.16 101.14Q-11.16 100.62 -10.97 100.27Q-10.7 99.73 -10.19 99.4Q-9.68 99.07 -9.02 99.07Q-8.21 99.07 -7.61 99.5Q-7.01 99.92 -6.86 100.6Q-6.85 100.67 -6.85 100.88Q-6.85 101.15 -6.88 101.24Q-7.06 102.04 -7.97 102.61Q-7.99 102.62 -8.03 102.65Q-8.08 102.67 -8.09 102.7L-8.11 102.71Q-7.44 103.16 -7.42 103.19Q-6.52 103.91 -6.52 104.98Q-6.52 105.95 -7.23 106.64Q-7.94 107.33 -9.01 107.33Q-10.49 107.33 -11.18 106.25Q-11.48 105.82 -11.48 105.2Q-11.48 104.93 -11.46 104.83Q-11.28 103.92 -10.31 103.27Q-10.24 103.22 -10.09 103.14Q-9.95 103.06 -9.94 103.04ZM-7.55 100.91Q-7.55 100.39 -7.88 100.03Q-8.22 99.67 -8.7 99.58Q-8.78 99.56 -9.1 99.56Q-9.73 99.56 -10.16 100Q-10.46 100.27 -10.46 100.66Q-10.46 101.17 -10.03 101.47Q-9.97 101.53 -9.26 101.98L-8.57 102.43Q-8.56 102.42 -8.41 102.33Q-8.27 102.24 -8.2 102.17Q-7.55 101.65 -7.55 100.91ZM-10.72 105.18Q-10.72 105.89 -10.2 106.35Q-9.68 106.81 -9 106.81Q-8.51 106.81 -8.11 106.61Q-7.7 106.4 -7.5 106.08Q-7.3 105.77 -7.3 105.42Q-7.3 104.9 -7.72 104.51Q-7.81 104.41 -8.71 103.82Q-8.88 103.72 -9.08 103.59Q-9.28 103.46 -9.38 103.39L-9.48 103.33L-9.62 103.4Q-10.38 103.9 -10.62 104.6Q-10.72 104.92 -10.72 105.18Z" fill="#000" stroke="#fff" stroke-width="2.6" stroke-linejoin="round" paint-order="stroke"/>
<path d="M-13.01 83.06Q-13.21 83.03 -14.92 83.03Q-16.6 83.03 -16.8 83.06H-16.94V82.51H-16.63Q-15.94 82.51 -15.73 82.48Q-15.64 82.46 -15.44 82.33V76.13Q-15.47 76.13 -15.54 76.16Q-16.09 76.38 -16.78 76.39H-17V75.84H-16.78Q-15.77 75.8 -15.1 75.38Q-14.88 75.26 -14.72 75.11Q-14.7 75.07 -14.58 75.07Q-14.46 75.07 -14.38 75.14V78.73L-14.36 82.33Q-14.18 82.51 -13.58 82.51H-13.19H-12.88V83.06Z M-10.85 76.04Q-10.18 75.07 -9.01 75.07Q-8.14 75.07 -7.48 75.67Q-7.15 75.98 -6.92 76.49Q-6.48 77.48 -6.48 79.22Q-6.48 81.08 -7 82.07Q-7.33 82.76 -7.98 83.08Q-8.48 83.33 -9 83.33Q-10.38 83.33 -11.02 82.07Q-11.53 81.08 -11.53 79.22Q-11.53 78.11 -11.38 77.38Q-11.23 76.66 -10.85 76.04ZM-8.15 75.9Q-8.5 75.52 -9 75.52Q-9.5 75.52 -9.86 75.9Q-10.13 76.18 -10.22 76.57Q-10.32 76.97 -10.34 77.94Q-10.34 78.01 -10.35 78.41Q-10.36 78.8 -10.36 79.07Q-10.36 80.22 -10.33 80.68Q-10.28 81.52 -10.19 81.88Q-10.09 82.25 -9.83 82.51Q-9.5 82.87 -9 82.87Q-8.51 82.87 -8.18 82.51Q-7.92 82.25 -7.82 81.88Q-7.73 81.52 -7.68 80.68Q-7.66 80.22 -7.66 79.07Q-7.66 78.8 -7.66 78.41Q-7.67 78.01 -7.67 77.94Q-7.69 76.97 -7.79 76.57Q-7.88 76.18 -8.15 75.9Z" fill="#000" stroke="#fff" stroke-width="2.6" stroke-linejoin="round" paint-order="stroke"/>
<path d="M-13.01 59.06Q-13.21 59.03 -14.92 59.03Q-16.6 59.03 -16.8 59.06H-16.94V58.51H-16.63Q-15.94 58.51 -15.73 58.48Q-15.64 58.46 -15.44 58.33V52.13Q-15.47 52.13 -15.54 52.16Q-16.09 52.38 -16.78 52.39H-17V51.84H-16.78Q-15.77 51.8 -15.1 51.38Q-14.88 51.26 -14.72 51.11Q-14.7 51.07 -14.58 51.07Q-14.46 51.07 -14.38 51.14V54.73L-14.36 58.33Q-14.18 58.51 -13.58 58.51H-13.19H-12.88V59.06Z M-10.68 53.92Q-11.02 53.92 -11.21 53.7Q-11.4 53.48 -11.4 53.17Q-11.4 52.31 -10.75 51.69Q-10.09 51.07 -9.18 51.07Q-8.15 51.07 -7.47 51.63Q-6.79 52.19 -6.64 53.09Q-6.61 53.3 -6.61 53.48Q-6.61 54.18 -7.03 54.79Q-7.37 55.3 -8.39 56.17Q-8.82 56.54 -9.59 57.28L-10.3 57.95L-9.38 57.96Q-7.5 57.96 -7.38 57.9Q-7.33 57.89 -7.26 57.65Q-7.21 57.52 -7.09 56.83V56.8H-6.61V56.83L-6.95 59.03V59.06H-11.4V58.84Q-11.4 58.6 -11.38 58.56Q-11.36 58.54 -10.37 57.42Q-9.06 55.97 -8.69 55.5Q-7.88 54.41 -7.88 53.5Q-7.88 52.7 -8.3 52.17Q-8.71 51.64 -9.46 51.64Q-10.15 51.64 -10.58 52.26Q-10.61 52.31 -10.66 52.39Q-10.69 52.45 -10.69 52.46Q-10.69 52.48 -10.63 52.48Q-10.33 52.48 -10.15 52.69Q-9.96 52.91 -9.96 53.2Q-9.96 53.5 -10.16 53.71Q-10.36 53.92 -10.68 53.92Z" fill="#000" stroke="#fff" stroke-width="2.6" stroke-linejoin="round" paint-order="stroke"/>
<path d="M-13.01 35.06Q-13.21 35.03 -14.92 35.03Q-16.6 35.03 -16.8 35.06H-16.94V34.51H-16.63Q-15.94 34.51 -15.73 34.48Q-15.64 34.46 -15.44 34.33V28.13Q-15.47 28.13 -15.54 28.16Q-16.09 28.38 -16.78 28.39H-17V27.84H-16.78Q-15.77 27.8 -15.1 27.38Q-14.88 27.26 -14.72 27.11Q-14.7 27.07 -14.58 27.07Q-14.46 27.07 -14.38 27.14V30.73L-14.36 34.33Q-14.18 34.51 -13.58 34.51H-13.19H-12.88V35.06Z M-6.46 35.06Q-6.62 35.03 -8 35.03Q-9.44 35.03 -9.61 35.06H-9.72V34.51H-9.35Q-8.83 34.5 -8.71 34.45Q-8.62 34.43 -8.57 34.33Q-8.56 34.31 -8.56 33.68V33.08H-11.66V32.53L-9.85 29.76Q-8.02 26.98 -7.99 26.96Q-7.97 26.94 -7.74 26.94H-7.52L-7.45 27.01V32.53H-6.35V33.08H-7.45V33.7Q-7.45 34.19 -7.45 34.27Q-7.44 34.36 -7.38 34.42Q-7.28 34.5 -6.7 34.51H-6.35V35.06ZM-8.48 32.53V28.52L-11.11 32.52L-9.8 32.53Z" fill="#000" stroke="#fff" stroke-width="2.6" stroke-linejoin="round" paint-order="stroke"/>
<path d="M-7.99 205.23H-7.77Q-7.28 205.23 -7.15 205.25Q-5.87 205.43 -5.11 206.37Q-4.34 207.3 -4.34 208.73Q-4.34 210.49 -5.47 212.06Q-6.21 213.13 -7.26 213.79Q-8.63 214.67 -10.01 214.67Q-11.4 214.67 -12.32 213.79Q-13.31 212.83 -13.31 211.21Q-13.31 210.76 -13.3 210.63Q-13.06 208.85 -11.79 207.35Q-11.42 206.94 -11.01 206.57Q-9.57 205.38 -7.99 205.23ZM-5.68 208.2Q-5.68 207.21 -6.13 206.57Q-6.58 205.94 -7.37 205.78Q-7.55 205.74 -7.77 205.74Q-8.04 205.74 -8.25 205.79Q-9.06 205.94 -9.77 206.52Q-10.07 206.76 -10.49 207.24Q-11.09 208 -11.5 209.21Q-11.92 210.41 -11.92 211.58Q-11.92 212.51 -11.55 213.16Q-11.18 213.81 -10.51 214.04Q-10.18 214.14 -9.88 214.14Q-9.08 214.14 -8.32 213.65Q-6.77 212.63 -6.06 210.32Q-5.68 209.08 -5.68 208.2Z" fill="#000" stroke="#fff" stroke-width="2.6" stroke-linejoin="round" paint-order="stroke"/>
</svg>
