<?xml version="1.0" encoding="UTF-8"?>
<svg xmlns="http://www.w3.org/2000/svg" width="342" height="335" viewBox="-3 -34.25 341.58 334.69">
<path d="M 9 279 L 9 0" fill="none" stroke="#c8c8c8" stroke-width="0.6" stroke-linecap="round" stroke-linejoin="round"/>
<path d="M 27 279 L 27 0" fill="none" stroke="#c8c8c8" stroke-width="0.6" stroke-linecap="round" stroke-linejoin="round"/>
<path d="M 45 279 L 45 0" fill="none" stroke="#c8c8c8" stroke-width="0.6" stroke-linecap="round" stroke-linejoin="round"/>
<path d="M 63 279 L 63 0" fill="none" stroke="#c8c8c8" stroke-width="0.6" stroke-linecap="round" stroke-linejoin="round"/>
<path d="M 81 279 L 81 0" fill="none" stroke="#c8c8c8" stroke-width="0.6" stroke-linecap="round" stroke-linejoin="round"/>
<path d="M 99 279 L 99 0" fill="none" stroke="#c8c8c8" stroke-width="0.6" stroke-linecap="round" stroke-linejoin="round"/>
<path d="M 117 279 L 117 0" fill="none" stroke="#c8c8c8" stroke-width="0.6" stroke-linecap="round" stroke-linejoin="round"/>
<path d="M 135 279 L 135 0" fill="none" stroke="#c8c8c8" stroke-width="0.6" stroke-linecap="round" stroke-linejoin="round"/>
<path d="M 153 279 L 153 0" fill="none" stroke="#c8c8c8" stroke-width="0.6" stroke-linecap="round" stroke-linejoin="round"/>
<path d="M 171 279 L 171 0" fill="none" stroke="#c8c8c8" stroke-width="0.6" stroke-linecap="round" stroke-linejoin="round"/>
<path d="M 189 279 L 189 0" fill="none" stroke="#c8c8c8" stroke-width="0.6" stroke-linecap="round" stroke-linejoin="round"/>
<path d="M 207 279 L 207 0" fill="none" stroke="#c8c8c8" stroke-width="0.6" stroke-linecap="round" stroke-linejoin="round"/>
<path d="M 225 279 L 225 0" fill="none" stroke="#c8c8c8" stroke-width="0.6" stroke-linecap="round" stroke-linejoin="round"/>
<path d="M 243 279 L 243 0" fill="none" stroke="#c8c8c8" stroke-width="0.6" stroke-linecap="round" stroke-linejoin="round"/>
<path d="M 261 279 L 261 0" fill="none" stroke="#c8c8c8" stroke-width="0.6" stroke-linecap="round" stroke-linejoin="round"/>
<path d="M 279 279 L 279 0" fill="none" stroke="#c8c8c8" stroke-width="0.6" stroke-linecap="round" stroke-linejoin="round"/>
<path d="M 297 279 L 297 0" fill="none" stroke="#c8c8c8" stroke-width="0.6" stroke-linecap="round" stroke-linejoin="round"/>
<path d="M 0 261 L 306 261" fill="none" stroke="#c8c8c8" stroke-width="0.6" stroke-linecap="round" stroke-linejoin="round"/>
<path d="M 0 243 L 306 243" fill="none" stroke="#c8c8c8" stroke-width="0.6" stroke-linecap="round" stroke-linejoin="round"/>
<path d="M 0 225 L 306 225" fill="none" stroke="#c8c8c8" stroke-width="0.6" stroke-linecap="round" stroke-linejoin="round"/>
<path d="M 0 207 L 306 207" fill="none" stroke="#c8c8c8" stroke-width="0.6" stroke-linecap="round" stroke-linejoin="round"/>
<path d="M 0 189 L 306 189" fill="none" stroke="#c8c8c8" stroke-width="0.6" stroke-linecap="round" stroke-linejoin="round"/>
<path d="M 0 171 L 306 171" fill="none" stroke="#c8c8c8" stroke-width="0.6" stroke-linecap="round" stroke-linejoin="round"/>
<path d="M 0 153 L 306 153" fill="none" stroke="#c8c8c8" stroke-width="0.6" stroke-linecap="round" stroke-linejoin="round"/>
<path d="M 0 135 L 306 135" fill="none" stroke="#c8c8c8" stroke-width="0.6" stroke-linecap="round" stroke-linejoin="round"/>
<path d="M 0 117 L 306 117" fill="none" stroke="#c8c8c8" stroke-width="0.6" stroke-linecap="round" stroke-linejoin="round"/>
<path d="M 0 99 L 306 99" fill="none" stroke="#c8c8c8" stroke-width="0.6" stroke-linecap="round" stroke-linejoin="round"/>
<path d="M 0 81 L 306 81" fill="none" stroke="#c8c8c8" stroke-width="0.6" stroke-linecap="round" stroke-linejoin="round"/>
<path d="M 0 63 L 306 63" fill="none" stroke="#c8c8c8" stroke-width="0.6" stroke-linecap="round" stroke-linejoin="round"/>
<path d="M 0 45 L 306 45" fill="none" stroke="#c8c8c8" stroke-width="0.6" stroke-linecap="round" stroke-linejoin="round"/>
<path d="M 0 27 L 306 27" fill="none" stroke="#c8c8c8" stroke-width="0.6" stroke-linecap="round" stroke-linejoin="round"/>
<path d="M 0 9 L 306 9" fill="none" stroke="#c8c8c8" stroke-width="0.6" stroke-linecap="round" stroke-linejoin="round"/>
<path d="M 0 279 L 318 279" fill="none" stroke="#000" stroke-width="1.1" stroke-linecap="round" stroke-linejoin="round"/>
<path d="M 311.5 275.43 L 318 279 L 311.5 282.57" fill="none" stroke="#000" stroke-width="1.1" stroke-linecap="round" stroke-linejoin="round"/>
<path d="M 153 279 L 153 -12" fill="none" stroke="#000" stroke-width="1.1" stroke-linecap="round" stroke-linejoin="round"/>
<path d="M 149.43 -5.5 L 153 -12 L 156.57 -5.5" fill="none" stroke="#000" stroke-width="1.1" stroke-linecap="round" stroke-linejoin="round"/>
<path d="M 9 276 L 9 282" fill="none" stroke="#000" stroke-width="0.9" stroke-linecap="round" stroke-linejoin="round"/>
<path d="M 45 276 L 45 282" fill="none" stroke="#000" stroke-width="0.9" stroke-linecap="round" stroke-linejoin="round"/>
<path d="M 81 276 L 81 282" fill="none" stroke="#000" stroke-width="0.9" stroke-linecap="round" stroke-linejoin="round"/>
<path d="M 117 276 L 117 282" fill="none" stroke="#000" stroke-width="0.9" stroke-linecap="round" stroke-linejoin="round"/>
<path d="M 189 276 L 189 282" fill="none" stroke="#000" stroke-width="0.9" stroke-linecap="round" stroke-linejoin="round"/>
<path d="M 225 276 L 225 282" fill="none" stroke="#000" stroke-width="0.9" stroke-linecap="round" stroke-linejoin="round"/>
<path d="M 261 276 L 261 282" fill="none" stroke="#000" stroke-width="0.9" stroke-linecap="round" stroke-linejoin="round"/>
<path d="M 297 276 L 297 282" fill="none" stroke="#000" stroke-width="0.9" stroke-linecap="round" stroke-linejoin="round"/>
<path d="M 150 243 L 156 243" fill="none" stroke="#000" stroke-width="0.9" stroke-linecap="round" stroke-linejoin="round"/>
<path d="M 150 207 L 156 207" fill="none" stroke="#000" stroke-width="0.9" stroke-linecap="round" stroke-linejoin="round"/>
<path d="M 150 171 L 156 171" fill="none" stroke="#000" stroke-width="0.9" stroke-linecap="round" stroke-linejoin="round"/>
<path d="M 150 135 L 156 135" fill="none" stroke="#000" stroke-width="0.9" stroke-linecap="round" stroke-linejoin="round"/>
<path d="M 150 99 L 156 99" fill="none" stroke="#000" stroke-width="0.9" stroke-linecap="round" stroke-linejoin="round"/>
<path d="M 150 63 L 156 63" fill="none" stroke="#000" stroke-width="0.9" stroke-linecap="round" stroke-linejoin="round"/>
<path d="M 150 27 L 156 27" fill="none" stroke="#000" stroke-width="0.9" stroke-linecap="round" stroke-linejoin="round"/>
<path d="M 0 224.95 L 26.94 224.86 L 46.97 224.7 L 63.06 224.44 L 76.39 224.06 L 88.14 223.52 L 98.33 222.81 L 107.33 221.9 L 111.49 221.36 L 115.42 220.76 L 119.42 220.06 L 123.24 219.28 L 126.84 218.43 L 130.33 217.48 L 133.65 216.46 L 136.86 215.33 L 139.95 214.11 L 142.88 212.81 L 145.74 211.39 L 148.5 209.86 L 151.14 208.24 L 153.73 206.49 L 156.21 204.63 L 158.62 202.65 L 160.99 200.52 L 163.24 198.3 L 165.71 195.63 L 168.13 192.77 L 170.44 189.77 L 172.69 186.58 L 174.88 183.2 L 177.02 179.61 L 179.1 175.82 L 181.12 171.83 L 183.09 167.65 L 185.01 163.26 L 186.86 158.69 L 188.72 153.78 L 190.52 148.66 L 192.26 143.36 L 193.95 137.88 L 195.64 132.03 L 197.27 126 L 198.9 119.59 L 200.47 112.99 L 202.05 105.99 L 203.57 98.82 L 205.03 91.51 L 206.49 83.78 L 207.96 75.6 L 210.77 58.51 L 213.47 40.27 L 216.06 20.91 L 218.59 0" fill="none" stroke="#000" stroke-width="1.6" stroke-linecap="round" stroke-linejoin="round"/>
<path d="M327.87 279.66Q327.78 279.57 327.78 279.5Q327.84 279.09 328.25 278.46Q328.95 277.39 330.01 277.23Q330.23 277.2 330.33 277.2Q330.86 277.2 331.3 277.47Q331.74 277.74 331.94 278.14Q332.13 277.89 332.18 277.83Q332.73 277.2 333.45 277.2Q334.06 277.2 334.45 277.55Q334.83 277.9 334.83 278.41Q334.83 278.88 334.57 279.19Q334.31 279.51 333.87 279.51Q333.58 279.51 333.4 279.35Q333.23 279.18 333.23 278.91Q333.23 278.22 333.98 277.96Q333.98 277.95 333.81 277.86Q333.66 277.77 333.38 277.77Q333.18 277.77 333.09 277.8Q332.52 278.04 332.25 278.79Q332.2 278.91 331.81 280.46Q331.43 282.01 331.39 282.21Q331.35 282.44 331.35 282.66Q331.35 283.02 331.56 283.23Q331.77 283.44 332.12 283.44Q332.75 283.44 333.25 282.91Q333.76 282.38 333.94 281.73Q333.99 281.58 334.03 281.56Q334.08 281.53 334.27 281.53Q334.56 281.53 334.56 281.65Q334.56 281.67 334.53 281.82Q334.27 282.75 333.48 283.44Q332.77 284 332 284Q330.94 284 330.4 283.05Q329.97 283.72 329.3 283.95Q329.16 283.98 328.9 283.98Q328.04 283.98 327.68 283.37Q327.52 283.11 327.52 282.76Q327.52 282.31 327.79 282Q328.06 281.69 328.49 281.69Q329.13 281.69 329.13 282.31Q329.13 282.87 328.61 283.12Q328.57 283.14 328.53 283.16Q328.49 283.19 328.46 283.2Q328.43 283.21 328.41 283.21L328.37 283.23Q328.37 283.27 328.59 283.37Q328.77 283.44 328.98 283.44Q329.52 283.44 329.91 282.76Q330.07 282.5 330.5 280.81Q330.58 280.47 330.69 280.05Q330.8 279.63 330.85 279.4Q330.9 279.18 330.92 279.13Q330.99 278.73 330.99 278.55Q330.99 278.19 330.8 277.98Q330.6 277.77 330.25 277.77Q329.58 277.77 329.08 278.29Q328.59 278.81 328.39 279.48Q328.37 279.62 328.33 279.64Q328.29 279.66 328.08 279.66Z" fill="#000"/>
<path d="M156.25 -26.46Q156.46 -26.46 156.61 -26.35Q156.76 -26.24 156.76 -26.05Q156.76 -25.85 156.03 -22.9Q155.29 -19.94 155.19 -19.66Q154.95 -18.92 154.42 -18.3Q153.88 -17.68 153.18 -17.32Q152.37 -16.93 151.66 -16.93Q150.52 -16.93 150.12 -17.64Q149.97 -17.86 149.97 -18.25Q149.97 -18.75 150.25 -19.04Q150.57 -19.32 150.91 -19.32Q151.57 -19.32 151.57 -18.7Q151.57 -18.14 151.05 -17.89Q151.02 -17.87 150.97 -17.85Q150.93 -17.82 150.9 -17.81Q150.87 -17.8 150.85 -17.8L150.81 -17.78Q150.85 -17.69 151.12 -17.59Q151.36 -17.5 151.6 -17.5H151.72Q151.98 -17.5 152.11 -17.52Q152.69 -17.69 153.19 -18.29Q153.7 -18.89 153.97 -19.73Q154.14 -20.23 154.14 -20.32Q154.14 -20.33 154.11 -20.31Q154.08 -20.29 154.02 -20.24Q153.46 -19.84 152.79 -19.84Q152.02 -19.84 151.53 -20.2Q151.03 -20.55 150.88 -21.23Q150.87 -21.34 150.87 -21.7Q150.87 -22.05 150.9 -22.25Q151 -22.89 151.59 -24.45Q151.92 -25.34 151.92 -25.68Q151.92 -25.89 151.88 -25.98Q151.84 -26.06 151.71 -26.06H151.63Q151.29 -26.06 150.97 -25.75Q150.49 -25.27 150.24 -24.3Q150.24 -24.29 150.22 -24.25Q150.21 -24.21 150.2 -24.21Q150.19 -24.2 150.18 -24.19Q150.16 -24.17 150.13 -24.17Q150.09 -24.17 150.06 -24.17Q150.03 -24.17 149.94 -24.17H149.73Q149.61 -24.29 149.69 -24.52Q150 -25.56 150.63 -26.15Q151.14 -26.63 151.69 -26.63Q152.32 -26.63 152.7 -26.28Q153.07 -25.94 153.07 -25.32Q153.04 -25.04 153.03 -25.01Q153.03 -24.92 152.8 -24.37Q152.19 -22.7 152.07 -21.92Q152.05 -21.8 152.05 -21.57Q152.05 -21 152.23 -20.7Q152.41 -20.41 152.89 -20.41Q153.24 -20.41 153.55 -20.59Q153.85 -20.77 154.01 -20.94Q154.17 -21.11 154.41 -21.41Q154.41 -21.43 154.69 -22.54Q154.96 -23.66 155.26 -24.81Q155.56 -25.97 155.61 -26.06Q155.8 -26.46 156.25 -26.46Z" fill="#000"/>
<path d="M2.51 289.66H9.48Q9.66 289.76 9.66 289.9Q9.66 290.04 9.48 290.14H2.51Q2.34 290.06 2.34 289.9Q2.34 289.74 2.51 289.66Z M12.73 288.88Q12.14 288.5 11.83 288.08Q11.51 287.66 11.51 286.97Q11.51 286.46 11.7 286.11Q11.96 285.57 12.47 285.24Q12.98 284.91 13.64 284.91Q14.46 284.91 15.06 285.33Q15.66 285.76 15.8 286.43Q15.82 286.5 15.82 286.72Q15.82 286.98 15.79 287.08Q15.61 287.87 14.7 288.45Q14.68 288.46 14.63 288.48Q14.59 288.51 14.58 288.53L14.56 288.54Q15.23 289 15.25 289.02Q16.15 289.74 16.15 290.81Q16.15 291.78 15.44 292.47Q14.72 293.16 13.66 293.16Q12.18 293.16 11.48 292.08Q11.18 291.65 11.18 291.04Q11.18 290.76 11.21 290.67Q11.39 289.76 12.36 289.11Q12.43 289.06 12.58 288.98Q12.72 288.89 12.73 288.88ZM15.12 286.74Q15.12 286.23 14.78 285.87Q14.45 285.51 13.97 285.41Q13.88 285.4 13.57 285.4Q12.94 285.4 12.5 285.83Q12.2 286.11 12.2 286.49Q12.2 287.01 12.64 287.31Q12.7 287.37 13.4 287.81L14.1 288.27Q14.11 288.26 14.26 288.17Q14.4 288.08 14.47 288Q15.12 287.49 15.12 286.74ZM11.95 291.02Q11.95 291.72 12.47 292.19Q12.98 292.65 13.67 292.65Q14.16 292.65 14.56 292.44Q14.96 292.24 15.17 291.92Q15.37 291.6 15.37 291.26Q15.37 290.74 14.95 290.34Q14.86 290.25 13.96 289.66Q13.79 289.55 13.59 289.43Q13.39 289.3 13.28 289.23L13.19 289.17L13.04 289.24Q12.29 289.73 12.05 290.44Q11.95 290.75 11.95 291.02Z" fill="#000" stroke="#fff" stroke-width="2.6" stroke-linejoin="round" paint-order="stroke"/>
<path d="M38.51 289.66H45.48Q45.66 289.76 45.66 289.9Q45.66 290.04 45.48 290.14H38.51Q38.34 290.06 38.34 289.9Q38.34 289.74 38.51 289.66Z M51.14 285.69Q50.88 285.42 50.4 285.39Q49.56 285.39 49 286.11Q48.43 286.89 48.43 288.53L48.44 288.58L48.54 288.42Q49.03 287.7 49.87 287.7Q50.42 287.7 50.84 287.93Q51.3 288.2 51.66 288.72Q52.02 289.25 52.12 289.86Q52.14 290.01 52.14 290.38V290.6Q52.14 290.87 52.08 291.11Q51.94 291.82 51.34 292.44Q50.82 292.98 50.18 293.12Q49.99 293.16 49.7 293.16Q49.48 293.16 49.3 293.13Q48.19 292.91 47.68 291.83Q47.17 290.74 47.17 289.14Q47.17 287.85 47.63 286.88Q48.08 285.9 48.9 285.36Q49.55 284.91 50.3 284.91Q51 284.91 51.43 285.28Q51.85 285.65 51.85 286.3Q51.85 286.6 51.68 286.78Q51.5 286.96 51.22 286.96Q50.93 286.96 50.75 286.79Q50.58 286.62 50.58 286.32Q50.58 285.78 51.14 285.69ZM50.62 288.57Q50.28 288.14 49.75 288.14Q49.31 288.14 49.03 288.41Q48.44 289 48.44 290.31Q48.44 291.38 48.59 291.78Q48.71 292.14 49 292.4Q49.28 292.65 49.68 292.65Q50.29 292.65 50.62 292.19Q50.8 291.94 50.84 291.59Q50.89 291.24 50.89 290.58V290.39V290.2Q50.89 289.52 50.84 289.17Q50.8 288.82 50.62 288.57Z" fill="#000" stroke="#fff" stroke-width="2.6" stroke-linejoin="round" paint-order="stroke"/>
<path d="M74.51 289.66H81.48Q81.66 289.76 81.66 289.9Q81.66 290.04 81.48 290.14H74.51Q74.34 290.06 74.34 289.9Q74.34 289.74 74.51 289.66Z M88.21 292.9Q88.04 292.86 86.66 292.86Q85.22 292.86 85.06 292.9H84.95V292.35H85.32Q85.84 292.34 85.96 292.29Q86.05 292.26 86.1 292.17Q86.11 292.14 86.11 291.52V290.92H83V290.37L84.82 287.6Q86.65 284.81 86.68 284.8Q86.7 284.78 86.93 284.78H87.14L87.22 284.85V290.37H88.32V290.92H87.22V291.53Q87.22 292.02 87.22 292.11Q87.23 292.19 87.29 292.25Q87.38 292.34 87.97 292.35H88.32V292.9ZM86.18 290.37V286.36L83.56 290.36L84.86 290.37Z" fill="#000" stroke="#fff" stroke-width="2.6" stroke-linejoin="round" paint-order="stroke"/>
<path d="M110.51 289.66H117.48Q117.66 289.76 117.66 289.9Q117.66 290.04 117.48 290.14H110.51Q110.34 290.06 110.34 289.9Q110.34 289.74 110.51 289.66Z M119.99 287.75Q119.65 287.75 119.46 287.54Q119.27 287.32 119.27 287.01Q119.27 286.14 119.92 285.53Q120.58 284.91 121.49 284.91Q122.52 284.91 123.2 285.47Q123.88 286.02 124.03 286.92Q124.06 287.14 124.06 287.32Q124.06 288.02 123.64 288.63Q123.3 289.13 122.28 290.01Q121.85 290.38 121.08 291.11L120.37 291.78L121.28 291.8Q123.17 291.8 123.29 291.74Q123.34 291.72 123.41 291.48Q123.46 291.35 123.58 290.67V290.63H124.06V290.67L123.72 292.86V292.9H119.27V292.67Q119.27 292.43 119.29 292.4Q119.3 292.37 120.3 291.26Q121.61 289.8 121.98 289.34Q122.78 288.24 122.78 287.33Q122.78 286.54 122.37 286.01Q121.96 285.47 121.21 285.47Q120.52 285.47 120.08 286.1Q120.06 286.14 120.01 286.23Q119.98 286.29 119.98 286.3Q119.98 286.31 120.04 286.31Q120.34 286.31 120.52 286.53Q120.71 286.74 120.71 287.03Q120.71 287.33 120.51 287.54Q120.31 287.75 119.99 287.75Z" fill="#000" stroke="#fff" stroke-width="2.6" stroke-linejoin="round" paint-order="stroke"/>
<path d="M187.32 287.75Q186.98 287.75 186.79 287.54Q186.6 287.32 186.6 287.01Q186.6 286.14 187.25 285.53Q187.91 284.91 188.82 284.91Q189.85 284.91 190.53 285.47Q191.21 286.02 191.36 286.92Q191.39 287.14 191.39 287.32Q191.39 288.02 190.97 288.63Q190.63 289.13 189.61 290.01Q189.18 290.38 188.41 291.11L187.7 291.78L188.62 291.8Q190.5 291.8 190.62 291.74Q190.67 291.72 190.74 291.48Q190.79 291.35 190.91 290.67V290.63H191.39V290.67L191.05 292.86V292.9H186.6V292.67Q186.6 292.43 186.62 292.4Q186.64 292.37 187.63 291.26Q188.94 289.8 189.31 289.34Q190.12 288.24 190.12 287.33Q190.12 286.54 189.7 286.01Q189.29 285.47 188.54 285.47Q187.85 285.47 187.42 286.1Q187.39 286.14 187.34 286.23Q187.31 286.29 187.31 286.3Q187.31 286.31 187.37 286.31Q187.67 286.31 187.85 286.53Q188.04 286.74 188.04 287.03Q188.04 287.33 187.84 287.54Q187.64 287.75 187.32 287.75Z" fill="#000" stroke="#fff" stroke-width="2.6" stroke-linejoin="round" paint-order="stroke"/>
<path d="M227.54 292.9Q227.38 292.86 226 292.86Q224.56 292.86 224.39 292.9H224.28V292.35H224.65Q225.17 292.34 225.29 292.29Q225.38 292.26 225.43 292.17Q225.44 292.14 225.44 291.52V290.92H222.34V290.37L224.15 287.6Q225.98 284.81 226.01 284.8Q226.03 284.78 226.26 284.78H226.48L226.55 284.85V290.37H227.65V290.92H226.55V291.53Q226.55 292.02 226.55 292.11Q226.56 292.19 226.62 292.25Q226.72 292.34 227.3 292.35H227.65V292.9ZM225.52 290.37V286.36L222.89 290.36L224.2 290.37Z" fill="#000" stroke="#fff" stroke-width="2.6" stroke-linejoin="round" paint-order="stroke"/>
<path d="M262.48 285.69Q262.21 285.42 261.73 285.39Q260.89 285.39 260.33 286.11Q259.76 286.89 259.76 288.53L259.78 288.58L259.87 288.42Q260.36 287.7 261.2 287.7Q261.76 287.7 262.18 287.93Q262.63 288.2 262.99 288.72Q263.35 289.25 263.45 289.86Q263.47 290.01 263.47 290.38V290.6Q263.47 290.87 263.41 291.11Q263.27 291.82 262.67 292.44Q262.15 292.98 261.52 293.12Q261.32 293.16 261.04 293.16Q260.81 293.16 260.63 293.13Q259.52 292.91 259.01 291.83Q258.5 290.74 258.5 289.14Q258.5 287.85 258.96 286.88Q259.42 285.9 260.23 285.36Q260.88 284.91 261.64 284.91Q262.33 284.91 262.76 285.28Q263.18 285.65 263.18 286.3Q263.18 286.6 263.01 286.78Q262.84 286.96 262.55 286.96Q262.26 286.96 262.09 286.79Q261.91 286.62 261.91 286.32Q261.91 285.78 262.48 285.69ZM261.95 288.57Q261.61 288.14 261.08 288.14Q260.64 288.14 260.36 288.41Q259.78 289 259.78 290.31Q259.78 291.38 259.92 291.78Q260.04 292.14 260.33 292.4Q260.62 292.65 261.01 292.65Q261.62 292.65 261.95 292.19Q262.13 291.94 262.18 291.59Q262.22 291.24 262.22 290.58V290.39V290.2Q262.22 289.52 262.18 289.17Q262.13 288.82 261.95 288.57Z" fill="#000" stroke="#fff" stroke-width="2.6" stroke-linejoin="round" paint-order="stroke"/>
<path d="M296.06 288.88Q295.48 288.5 295.16 288.08Q294.84 287.66 294.84 286.97Q294.84 286.46 295.03 286.11Q295.3 285.57 295.81 285.24Q296.32 284.91 296.98 284.91Q297.79 284.91 298.39 285.33Q298.99 285.76 299.14 286.43Q299.15 286.5 299.15 286.72Q299.15 286.98 299.12 287.08Q298.94 287.87 298.03 288.45Q298.01 288.46 297.97 288.48Q297.92 288.51 297.91 288.53L297.89 288.54Q298.56 289 298.58 289.02Q299.48 289.74 299.48 290.81Q299.48 291.78 298.77 292.47Q298.06 293.16 296.99 293.16Q295.51 293.16 294.82 292.08Q294.52 291.65 294.52 291.04Q294.52 290.76 294.54 290.67Q294.72 289.76 295.69 289.11Q295.76 289.06 295.91 288.98Q296.05 288.89 296.06 288.88ZM298.45 286.74Q298.45 286.23 298.12 285.87Q297.78 285.51 297.3 285.41Q297.22 285.4 296.9 285.4Q296.27 285.4 295.84 285.83Q295.54 286.11 295.54 286.49Q295.54 287.01 295.97 287.31Q296.03 287.37 296.74 287.81L297.43 288.27Q297.44 288.26 297.59 288.17Q297.73 288.08 297.8 288Q298.45 287.49 298.45 286.74ZM295.28 291.02Q295.28 291.72 295.8 292.19Q296.32 292.65 297 292.65Q297.49 292.65 297.89 292.44Q298.3 292.24 298.5 291.92Q298.7 291.6 298.7 291.26Q298.7 290.74 298.28 290.34Q298.19 290.25 297.29 289.66Q297.12 289.55 296.92 289.43Q296.72 289.3 296.62 289.23L296.52 289.17L296.38 289.24Q295.62 289.73 295.38 290.44Q295.28 290.75 295.28 291.02Z" fill="#000" stroke="#fff" stroke-width="2.6" stroke-linejoin="round" paint-order="stroke"/>
<path d="M162.32 241.72Q161.98 241.72 161.79 241.5Q161.6 241.28 161.6 240.97Q161.6 240.11 162.25 239.49Q162.91 238.87 163.82 238.87Q164.85 238.87 165.53 239.43Q166.21 239.99 166.36 240.89Q166.39 241.1 166.39 241.28Q166.39 241.98 165.97 242.59Q165.63 243.1 164.61 243.97Q164.18 244.34 163.41 245.08L162.7 245.75L163.62 245.76Q165.5 245.76 165.62 245.7Q165.67 245.69 165.74 245.45Q165.79 245.32 165.91 244.63V244.6H166.39V244.63L166.05 246.83V246.86H161.6V246.64Q161.6 246.4 161.62 246.36Q161.64 246.34 162.63 245.22Q163.94 243.77 164.31 243.3Q165.12 242.21 165.12 241.3Q165.12 240.5 164.7 239.97Q164.29 239.44 163.54 239.44Q162.85 239.44 162.42 240.06Q162.39 240.11 162.34 240.19Q162.31 240.25 162.31 240.26Q162.31 240.28 162.37 240.28Q162.67 240.28 162.85 240.49Q163.04 240.71 163.04 241Q163.04 241.3 162.84 241.51Q162.64 241.72 162.32 241.72Z" fill="#000" stroke="#fff" stroke-width="2.6" stroke-linejoin="round" paint-order="stroke"/>
<path d="M166.54 210.86Q166.38 210.83 165 210.83Q163.56 210.83 163.39 210.86H163.28V210.31H163.65Q164.17 210.3 164.29 210.25Q164.38 210.23 164.43 210.13Q164.44 210.11 164.44 209.48V208.88H161.34V208.33L163.15 205.56Q164.98 202.78 165.01 202.76Q165.03 202.74 165.26 202.74H165.48L165.55 202.81V208.33H166.65V208.88H165.55V209.5Q165.55 209.99 165.55 210.07Q165.56 210.16 165.62 210.22Q165.72 210.3 166.3 210.31H166.65V210.86ZM164.52 208.33V204.32L161.89 208.32L163.2 208.33Z" fill="#000" stroke="#fff" stroke-width="2.6" stroke-linejoin="round" paint-order="stroke"/>
<path d="M165.48 167.65Q165.21 167.39 164.73 167.35Q163.89 167.35 163.33 168.07Q162.76 168.85 162.76 170.5L162.78 170.54L162.87 170.39Q163.36 169.67 164.2 169.67Q164.76 169.67 165.18 169.9Q165.63 170.16 165.99 170.69Q166.35 171.22 166.45 171.83Q166.47 171.97 166.47 172.34V172.56Q166.47 172.84 166.41 173.08Q166.27 173.78 165.67 174.41Q165.15 174.95 164.52 175.08Q164.32 175.13 164.04 175.13Q163.81 175.13 163.63 175.09Q162.52 174.88 162.01 173.79Q161.5 172.7 161.5 171.11Q161.5 169.81 161.96 168.84Q162.42 167.87 163.23 167.33Q163.88 166.87 164.64 166.87Q165.33 166.87 165.76 167.24Q166.18 167.62 166.18 168.26Q166.18 168.56 166.01 168.74Q165.84 168.92 165.55 168.92Q165.26 168.92 165.09 168.76Q164.91 168.59 164.91 168.29Q164.91 167.75 165.48 167.65ZM164.95 170.53Q164.61 170.1 164.08 170.1Q163.64 170.1 163.36 170.38Q162.78 170.96 162.78 172.27Q162.78 173.34 162.92 173.75Q163.04 174.11 163.33 174.36Q163.62 174.61 164.01 174.61Q164.62 174.61 164.95 174.16Q165.13 173.9 165.18 173.56Q165.22 173.21 165.22 172.55V172.36V172.16Q165.22 171.48 165.18 171.13Q165.13 170.78 164.95 170.53Z" fill="#000" stroke="#fff" stroke-width="2.6" stroke-linejoin="round" paint-order="stroke"/>
<path d="M163.06 134.84Q162.48 134.46 162.16 134.04Q161.84 133.62 161.84 132.94Q161.84 132.42 162.03 132.07Q162.3 131.53 162.81 131.2Q163.32 130.87 163.98 130.87Q164.79 130.87 165.39 131.3Q165.99 131.72 166.14 132.4Q166.15 132.47 166.15 132.68Q166.15 132.95 166.12 133.04Q165.94 133.84 165.03 134.41Q165.01 134.42 164.97 134.45Q164.92 134.47 164.91 134.5L164.89 134.51Q165.56 134.96 165.58 134.99Q166.48 135.71 166.48 136.78Q166.48 137.75 165.77 138.44Q165.06 139.13 163.99 139.13Q162.51 139.13 161.82 138.05Q161.52 137.62 161.52 137Q161.52 136.73 161.54 136.63Q161.72 135.72 162.69 135.07Q162.76 135.02 162.91 134.94Q163.05 134.86 163.06 134.84ZM165.45 132.71Q165.45 132.19 165.12 131.83Q164.78 131.47 164.3 131.38Q164.22 131.36 163.9 131.36Q163.27 131.36 162.84 131.8Q162.54 132.07 162.54 132.46Q162.54 132.97 162.97 133.27Q163.03 133.33 163.74 133.78L164.43 134.23Q164.44 134.22 164.59 134.13Q164.73 134.04 164.8 133.97Q165.45 133.45 165.45 132.71ZM162.28 136.98Q162.28 137.69 162.8 138.15Q163.32 138.61 164 138.61Q164.49 138.61 164.89 138.41Q165.3 138.2 165.5 137.88Q165.7 137.57 165.7 137.22Q165.7 136.7 165.28 136.31Q165.19 136.21 164.29 135.62Q164.12 135.52 163.92 135.39Q163.72 135.26 163.62 135.19L163.52 135.13L163.38 135.2Q162.62 135.7 162.38 136.4Q162.28 136.72 162.28 136.98Z" fill="#000" stroke="#fff" stroke-width="2.6" stroke-linejoin="round" paint-order="stroke"/>
<path d="M165.99 102.86Q165.79 102.83 164.08 102.83Q162.4 102.83 162.2 102.86H162.06V102.31H162.37Q163.06 102.31 163.27 102.28Q163.36 102.26 163.56 102.13V95.93Q163.53 95.93 163.46 95.96Q162.91 96.18 162.22 96.19H162V95.64H162.22Q163.23 95.6 163.9 95.18Q164.12 95.06 164.28 94.91Q164.3 94.87 164.42 94.87Q164.54 94.87 164.62 94.94V98.53L164.64 102.13Q164.82 102.31 165.42 102.31H165.81H166.12V102.86Z M168.15 95.84Q168.82 94.87 169.99 94.87Q170.86 94.87 171.52 95.47Q171.85 95.78 172.08 96.29Q172.52 97.28 172.52 99.02Q172.52 100.88 172 101.87Q171.67 102.56 171.02 102.88Q170.52 103.13 170 103.13Q168.62 103.13 167.98 101.87Q167.47 100.88 167.47 99.02Q167.47 97.91 167.62 97.18Q167.77 96.46 168.15 95.84ZM170.85 95.7Q170.5 95.32 170 95.32Q169.5 95.32 169.14 95.7Q168.87 95.98 168.78 96.37Q168.68 96.77 168.66 97.74Q168.66 97.81 168.65 98.21Q168.64 98.6 168.64 98.87Q168.64 100.02 168.67 100.48Q168.72 101.32 168.81 101.68Q168.91 102.05 169.17 102.31Q169.5 102.67 170 102.67Q170.49 102.67 170.82 102.31Q171.08 102.05 171.18 101.68Q171.27 101.32 171.32 100.48Q171.34 100.02 171.34 98.87Q171.34 98.6 171.34 98.21Q171.33 97.81 171.33 97.74Q171.31 96.77 171.21 96.37Q171.12 95.98 170.85 95.7Z" fill="#000" stroke="#fff" stroke-width="2.6" stroke-linejoin="round" paint-order="stroke"/>
<path d="M165.99 66.86Q165.79 66.83 164.08 66.83Q162.4 66.83 162.2 66.86H162.06V66.31H162.37Q163.06 66.31 163.27 66.28Q163.36 66.26 163.56 66.13V59.93Q163.53 59.93 163.46 59.96Q162.91 60.18 162.22 60.19H162V59.64H162.22Q163.23 59.6 163.9 59.18Q164.12 59.06 164.28 58.91Q164.3 58.87 164.42 58.87Q164.54 58.87 164.62 58.94V62.53L164.64 66.13Q164.82 66.31 165.42 66.31H165.81H166.12V66.86Z M168.32 61.72Q167.98 61.72 167.79 61.5Q167.6 61.28 167.6 60.97Q167.6 60.11 168.25 59.49Q168.91 58.87 169.82 58.87Q170.85 58.87 171.53 59.43Q172.21 59.99 172.36 60.89Q172.39 61.1 172.39 61.28Q172.39 61.98 171.97 62.59Q171.63 63.1 170.61 63.97Q170.18 64.34 169.41 65.08L168.7 65.75L169.62 65.76Q171.5 65.76 171.62 65.7Q171.67 65.69 171.74 65.45Q171.79 65.32 171.91 64.63V64.6H172.39V64.63L172.05 66.83V66.86H167.6V66.64Q167.6 66.4 167.62 66.36Q167.64 66.34 168.63 65.22Q169.94 63.77 170.31 63.3Q171.12 62.21 171.12 61.3Q171.12 60.5 170.7 59.97Q170.29 59.44 169.54 59.44Q168.85 59.44 168.42 60.06Q168.39 60.11 168.34 60.19Q168.31 60.25 168.31 60.26Q168.31 60.28 168.37 60.28Q168.67 60.28 168.85 60.49Q169.04 60.71 169.04 61Q169.04 61.3 168.84 61.51Q168.64 61.72 168.32 61.72Z" fill="#000" stroke="#fff" stroke-width="2.6" stroke-linejoin="round" paint-order="stroke"/>
<path d="M165.99 30.86Q165.79 30.83 164.08 30.83Q162.4 30.83 162.2 30.86H162.06V30.31H162.37Q163.06 30.31 163.27 30.28Q163.36 30.26 163.56 30.13V23.93Q163.53 23.93 163.46 23.96Q162.91 24.18 162.22 24.19H162V23.64H162.22Q163.23 23.6 163.9 23.18Q164.12 23.06 164.28 22.91Q164.3 22.87 164.42 22.87Q164.54 22.87 164.62 22.94V26.53L164.64 30.13Q164.82 30.31 165.42 30.31H165.81H166.12V30.86Z M172.54 30.86Q172.38 30.83 171 30.83Q169.56 30.83 169.39 30.86H169.28V30.31H169.65Q170.17 30.3 170.29 30.25Q170.38 30.23 170.43 30.13Q170.44 30.11 170.44 29.48V28.88H167.34V28.33L169.15 25.56Q170.98 22.78 171.01 22.76Q171.03 22.74 171.26 22.74H171.48L171.55 22.81V28.33H172.65V28.88H171.55V29.5Q171.55 29.99 171.55 30.07Q171.56 30.16 171.62 30.22Q171.72 30.3 172.3 30.31H172.65V30.86ZM170.52 28.33V24.32L167.89 28.32L169.2 28.33Z" fill="#000" stroke="#fff" stroke-width="2.6" stroke-linejoin="round" paint-order="stroke"/>
<path d="M146.01 285.03H146.23Q146.72 285.03 146.85 285.05Q148.13 285.23 148.89 286.16Q149.66 287.1 149.66 288.53Q149.66 290.29 148.53 291.86Q147.79 292.92 146.74 293.59Q145.37 294.47 143.99 294.47Q142.6 294.47 141.68 293.59Q140.69 292.63 140.69 291.01Q140.69 290.56 140.7 290.43Q140.94 288.65 142.21 287.15Q142.58 286.74 142.99 286.37Q144.43 285.18 146.01 285.03ZM148.32 288Q148.32 287.01 147.87 286.37Q147.42 285.74 146.63 285.58Q146.45 285.54 146.23 285.54Q145.96 285.54 145.75 285.59Q144.94 285.74 144.23 286.32Q143.93 286.56 143.51 287.04Q142.91 287.8 142.5 289.01Q142.08 290.21 142.08 291.38Q142.08 292.31 142.45 292.96Q142.82 293.61 143.49 293.83Q143.82 293.94 144.12 293.94Q144.92 293.94 145.68 293.44Q147.23 292.43 147.94 290.12Q148.32 288.88 148.32 288Z" fill="#000" stroke="#fff" stroke-width="2.6" stroke-linejoin="round" paint-order="stroke"/>
</svg>
