<?xml version="1.0" encoding="UTF-8"?>
<svg xmlns:xlink="http://www.w3.org/1999/xlink" xmlns="http://www.w3.org/2000/svg" width="309" height="295" viewBox="227.83 145.79 181.57 173.31">
<defs>
<g>
<g id="glyph-1-0">
<path d="M 4.843 -3.796 C 4.890 -3.937 4.890 -3.953 4.890 -4.031 C 4.890 -4.203 4.75 -4.296 4.593 -4.296 C 4.5 -4.296 4.343 -4.234 4.25 -4.093 C 4.234 -4.031 4.140 -3.734 4.109 -3.546 C 4.031 -3.296 3.968 -3.015 3.906 -2.75 L 3.453 -0.953 C 3.421 -0.812 2.984 -0.109 2.328 -0.109 C 1.828 -0.109 1.718 -0.546 1.718 -0.921 C 1.718 -1.375 1.890 -2 2.218 -2.875 C 2.375 -3.281 2.421 -3.390 2.421 -3.593 C 2.421 -4.031 2.109 -4.406 1.609 -4.406 C 0.656 -4.406 0.296 -2.953 0.296 -2.875 C 0.296 -2.765 0.390 -2.765 0.406 -2.765 C 0.515 -2.765 0.515 -2.796 0.562 -2.953 C 0.843 -3.890 1.234 -4.187 1.578 -4.187 C 1.656 -4.187 1.828 -4.187 1.828 -3.875 C 1.828 -3.625 1.718 -3.359 1.656 -3.171 C 1.25 -2.109 1.078 -1.546 1.078 -1.078 C 1.078 -0.187 1.703 0.109 2.296 0.109 C 2.687 0.109 3.015 -0.062 3.296 -0.343 C 3.171 0.171 3.046 0.671 2.656 1.203 C 2.390 1.531 2.015 1.828 1.562 1.828 C 1.421 1.828 0.968 1.796 0.796 1.406 C 0.953 1.406 1.093 1.406 1.218 1.281 C 1.328 1.203 1.421 1.062 1.421 0.875 C 1.421 0.562 1.156 0.531 1.062 0.531 C 0.828 0.531 0.5 0.687 0.5 1.171 C 0.5 1.671 0.937 2.046 1.562 2.046 C 2.578 2.046 3.609 1.140 3.890 0.015 Z M 4.843 -3.796 "></path>
</g>
<g id="glyph-1-1">
<path d="M 3.328 -3.015 C 3.390 -3.265 3.625 -4.187 4.312 -4.187 C 4.359 -4.187 4.609 -4.187 4.812 -4.062 C 4.531 -4 4.343 -3.765 4.343 -3.515 C 4.343 -3.359 4.453 -3.171 4.718 -3.171 C 4.937 -3.171 5.25 -3.343 5.25 -3.75 C 5.25 -4.265 4.671 -4.406 4.328 -4.406 C 3.75 -4.406 3.406 -3.875 3.281 -3.656 C 3.031 -4.312 2.5 -4.406 2.203 -4.406 C 1.171 -4.406 0.593 -3.125 0.593 -2.875 C 0.593 -2.765 0.703 -2.765 0.718 -2.765 C 0.796 -2.765 0.828 -2.796 0.843 -2.875 C 1.187 -3.937 1.843 -4.187 2.187 -4.187 C 2.375 -4.187 2.718 -4.093 2.718 -3.515 C 2.718 -3.203 2.546 -2.546 2.187 -1.140 C 2.031 -0.531 1.671 -0.109 1.234 -0.109 C 1.171 -0.109 0.953 -0.109 0.734 -0.234 C 0.984 -0.296 1.203 -0.5 1.203 -0.781 C 1.203 -1.046 0.984 -1.125 0.843 -1.125 C 0.531 -1.125 0.296 -0.875 0.296 -0.546 C 0.296 -0.093 0.781 0.109 1.218 0.109 C 1.890 0.109 2.25 -0.593 2.265 -0.640 C 2.390 -0.281 2.75 0.109 3.343 0.109 C 4.375 0.109 4.937 -1.171 4.937 -1.421 C 4.937 -1.531 4.859 -1.531 4.828 -1.531 C 4.734 -1.531 4.718 -1.484 4.687 -1.421 C 4.359 -0.343 3.687 -0.109 3.375 -0.109 C 2.984 -0.109 2.828 -0.421 2.828 -0.765 C 2.828 -0.984 2.875 -1.203 2.984 -1.640 Z M 3.328 -3.015 "></path>
</g>
<g id="glyph-4-0">
<path d="M 2.468 -2.515 C 3.015 -2.781 3.359 -3.109 3.359 -3.593 C 3.359 -4.265 2.656 -4.625 1.984 -4.625 C 1.218 -4.625 0.593 -4.125 0.593 -3.468 C 0.593 -3.140 0.75 -2.906 0.875 -2.765 C 1 -2.609 1.046 -2.578 1.453 -2.343 C 1.062 -2.171 0.375 -1.796 0.375 -1.062 C 0.375 -0.296 1.171 0.140 1.968 0.140 C 2.859 0.140 3.578 -0.421 3.578 -1.171 C 3.578 -1.640 3.312 -2.031 2.906 -2.265 C 2.812 -2.328 2.578 -2.453 2.468 -2.515 Z M 1.343 -3.171 C 1.156 -3.281 0.968 -3.468 0.968 -3.734 C 0.968 -4.171 1.468 -4.421 1.968 -4.421 C 2.515 -4.421 3 -4.078 3 -3.593 C 3 -2.968 2.265 -2.656 2.265 -2.656 C 2.25 -2.656 2.234 -2.656 2.187 -2.687 Z M 1.671 -2.203 L 2.640 -1.656 C 2.812 -1.546 3.156 -1.343 3.156 -0.937 C 3.156 -0.406 2.578 -0.078 1.984 -0.078 C 1.343 -0.078 0.796 -0.5 0.796 -1.062 C 0.796 -1.578 1.171 -1.984 1.671 -2.203 Z M 1.671 -2.203 "></path>
</g>
<g id="glyph-4-1">
<path d="M 1.906 -2.328 C 2.453 -2.328 2.843 -1.953 2.843 -1.203 C 2.843 -0.343 2.328 -0.078 1.937 -0.078 C 1.656 -0.078 1.031 -0.156 0.75 -0.578 C 1.078 -0.578 1.156 -0.812 1.156 -0.968 C 1.156 -1.187 0.984 -1.343 0.765 -1.343 C 0.578 -1.343 0.375 -1.218 0.375 -0.937 C 0.375 -0.281 1.093 0.140 1.937 0.140 C 2.906 0.140 3.578 -0.515 3.578 -1.203 C 3.578 -1.75 3.140 -2.296 2.375 -2.453 C 3.093 -2.718 3.359 -3.234 3.359 -3.671 C 3.359 -4.218 2.734 -4.625 1.953 -4.625 C 1.187 -4.625 0.593 -4.25 0.593 -3.687 C 0.593 -3.453 0.75 -3.328 0.953 -3.328 C 1.171 -3.328 1.312 -3.484 1.312 -3.671 C 1.312 -3.875 1.171 -4.031 0.953 -4.046 C 1.203 -4.343 1.671 -4.421 1.937 -4.421 C 2.25 -4.421 2.687 -4.265 2.687 -3.671 C 2.687 -3.375 2.593 -3.046 2.406 -2.843 C 2.187 -2.578 1.984 -2.562 1.640 -2.531 C 1.468 -2.515 1.453 -2.515 1.421 -2.515 C 1.406 -2.515 1.343 -2.5 1.343 -2.421 C 1.343 -2.328 1.406 -2.328 1.531 -2.328 Z M 1.906 -2.328 "></path>
</g>
<g id="glyph-4-2">
<path d="M 2.328 -4.437 C 2.328 -4.625 2.328 -4.625 2.125 -4.625 C 1.671 -4.187 1.046 -4.187 0.765 -4.187 L 0.765 -3.937 C 0.921 -3.937 1.390 -3.937 1.765 -4.125 L 1.765 -0.578 C 1.765 -0.343 1.765 -0.25 1.078 -0.25 L 0.812 -0.25 L 0.812 0 C 0.937 0 1.796 -0.031 2.046 -0.031 C 2.265 -0.031 3.140 0 3.296 0 L 3.296 -0.25 L 3.031 -0.25 C 2.328 -0.25 2.328 -0.343 2.328 -0.578 Z M 2.328 -4.437 "></path>
</g>
<g id="glyph-4-3">
<path d="M 1.078 -3.890 C 1.437 -3.796 1.640 -3.796 1.75 -3.796 C 2.671 -3.796 3.218 -4.421 3.218 -4.531 C 3.218 -4.609 3.171 -4.625 3.140 -4.625 C 3.125 -4.625 3.109 -4.625 3.078 -4.609 C 2.906 -4.546 2.546 -4.406 2.031 -4.406 C 1.828 -4.406 1.468 -4.421 1.015 -4.593 C 0.937 -4.625 0.921 -4.625 0.921 -4.625 C 0.828 -4.625 0.828 -4.546 0.828 -4.437 L 0.828 -2.390 C 0.828 -2.265 0.828 -2.187 0.937 -2.187 C 1 -2.187 1.015 -2.187 1.078 -2.281 C 1.375 -2.656 1.812 -2.718 2.046 -2.718 C 2.468 -2.718 2.656 -2.390 2.687 -2.328 C 2.812 -2.093 2.859 -1.828 2.859 -1.421 C 2.859 -1.218 2.859 -0.812 2.640 -0.5 C 2.468 -0.25 2.171 -0.078 1.828 -0.078 C 1.375 -0.078 0.906 -0.328 0.734 -0.796 C 1 -0.781 1.140 -0.953 1.140 -1.140 C 1.140 -1.437 0.875 -1.484 0.781 -1.484 C 0.781 -1.484 0.437 -1.484 0.437 -1.109 C 0.437 -0.484 1.015 0.140 1.843 0.140 C 2.734 0.140 3.515 -0.515 3.515 -1.406 C 3.515 -2.187 2.921 -2.906 2.062 -2.906 C 1.75 -2.906 1.390 -2.843 1.078 -2.578 Z M 1.078 -3.890 "></path>
</g>
<g id="glyph-4-4">
<path d="M 3.515 -1.265 L 3.281 -1.265 C 3.265 -1.109 3.187 -0.703 3.093 -0.640 C 3.046 -0.593 2.515 -0.593 2.406 -0.593 L 1.125 -0.593 C 1.859 -1.234 2.109 -1.437 2.515 -1.765 C 3.031 -2.171 3.515 -2.609 3.515 -3.265 C 3.515 -4.109 2.781 -4.625 1.890 -4.625 C 1.031 -4.625 0.437 -4.015 0.437 -3.375 C 0.437 -3.031 0.734 -2.984 0.812 -2.984 C 0.968 -2.984 1.171 -3.109 1.171 -3.359 C 1.171 -3.484 1.125 -3.734 0.765 -3.734 C 0.984 -4.218 1.453 -4.375 1.781 -4.375 C 2.484 -4.375 2.843 -3.828 2.843 -3.265 C 2.843 -2.656 2.406 -2.187 2.187 -1.937 L 0.515 -0.265 C 0.437 -0.203 0.437 -0.187 0.437 0 L 3.312 0 Z M 3.515 -1.265 "></path>
</g>
<g id="glyph-4-5">
<path d="M 3.687 -1.140 L 3.687 -1.390 L 2.906 -1.390 L 2.906 -4.5 C 2.906 -4.640 2.906 -4.703 2.765 -4.703 C 2.671 -4.703 2.640 -4.703 2.578 -4.593 L 0.265 -1.390 L 0.265 -1.140 L 2.328 -1.140 L 2.328 -0.578 C 2.328 -0.328 2.328 -0.25 1.75 -0.25 L 1.562 -0.25 L 1.562 0 C 1.921 -0.015 2.359 -0.031 2.609 -0.031 C 2.875 -0.031 3.312 -0.015 3.671 0 L 3.671 -0.25 L 3.484 -0.25 C 2.906 -0.25 2.906 -0.328 2.906 -0.578 L 2.906 -1.140 Z M 2.375 -3.937 L 2.375 -1.390 L 0.531 -1.390 Z M 2.375 -3.937 "></path>
</g>
<g id="glyph-4-6">
<path d="M 1.046 -2.281 C 1.046 -2.843 1.093 -3.359 1.359 -3.796 C 1.593 -4.171 1.968 -4.421 2.421 -4.421 C 2.625 -4.421 2.906 -4.375 3.046 -4.187 C 2.875 -4.171 2.718 -4.046 2.718 -3.843 C 2.718 -3.671 2.843 -3.515 3.046 -3.515 C 3.265 -3.515 3.390 -3.656 3.390 -3.859 C 3.390 -4.265 3.093 -4.625 2.406 -4.625 C 1.406 -4.625 0.375 -3.703 0.375 -2.203 C 0.375 -0.406 1.218 0.140 2 0.140 C 2.843 0.140 3.578 -0.515 3.578 -1.421 C 3.578 -2.312 2.875 -2.968 2.062 -2.968 C 1.5 -2.968 1.203 -2.593 1.046 -2.281 Z M 2 -0.078 C 1.640 -0.078 1.375 -0.281 1.218 -0.593 C 1.125 -0.796 1.062 -1.156 1.062 -1.562 C 1.062 -2.25 1.468 -2.765 2.031 -2.765 C 2.343 -2.765 2.562 -2.640 2.734 -2.390 C 2.906 -2.125 2.906 -1.828 2.906 -1.421 C 2.906 -1.031 2.906 -0.734 2.718 -0.453 C 2.562 -0.218 2.328 -0.078 2 -0.078 Z M 2 -0.078 "></path>
</g>
<g id="glyph-4-7">
<path d="M 3.734 -4.203 C 3.796 -4.296 3.796 -4.312 3.796 -4.484 L 1.968 -4.484 C 1.687 -4.484 1.609 -4.5 1.359 -4.515 C 1 -4.546 0.984 -4.593 0.968 -4.703 L 0.734 -4.703 L 0.484 -3.218 L 0.718 -3.218 C 0.734 -3.328 0.812 -3.781 0.921 -3.859 C 0.968 -3.890 1.546 -3.890 1.640 -3.890 L 3.156 -3.890 C 2.937 -3.609 2.578 -3.171 2.437 -2.968 C 1.531 -1.781 1.437 -0.671 1.437 -0.265 C 1.437 -0.187 1.437 0.140 1.765 0.140 C 2.109 0.140 2.109 -0.171 2.109 -0.265 L 2.109 -0.546 C 2.109 -1.890 2.390 -2.515 2.687 -2.890 Z M 3.734 -4.203 "></path>
</g>
<g id="glyph-4-8">
<path d="M 2.906 -2.078 C 2.906 -0.343 2.062 -0.078 1.640 -0.078 C 1.484 -0.078 1.109 -0.093 0.921 -0.312 C 1.218 -0.343 1.234 -0.578 1.234 -0.640 C 1.234 -0.812 1.109 -0.968 0.906 -0.968 C 0.703 -0.968 0.578 -0.828 0.578 -0.625 C 0.578 -0.156 0.968 0.140 1.640 0.140 C 2.640 0.140 3.578 -0.796 3.578 -2.296 C 3.578 -4.015 2.812 -4.625 2 -4.625 C 1.765 -4.625 1.296 -4.593 0.890 -4.203 C 0.656 -3.968 0.375 -3.703 0.375 -3.078 C 0.375 -2.187 1.078 -1.531 1.890 -1.531 C 2.453 -1.531 2.75 -1.906 2.906 -2.218 Z M 1.937 -1.734 C 1.656 -1.734 1.406 -1.812 1.203 -2.140 C 1.046 -2.390 1.046 -2.687 1.046 -3.078 C 1.046 -3.484 1.046 -3.75 1.25 -4.031 C 1.421 -4.281 1.640 -4.421 2 -4.421 C 2.359 -4.421 2.578 -4.203 2.687 -4.015 C 2.875 -3.734 2.890 -3.234 2.890 -3 C 2.890 -2.093 2.375 -1.734 1.937 -1.734 Z M 1.937 -1.734 "></path>
</g>
<g id="glyph-4-9">
<path d="M 3.593 -2.218 C 3.593 -2.984 3.5 -3.546 3.187 -4.031 C 2.968 -4.343 2.531 -4.625 1.984 -4.625 C 0.359 -4.625 0.359 -2.718 0.359 -2.218 C 0.359 -1.718 0.359 0.140 1.984 0.140 C 3.593 0.140 3.593 -1.718 3.593 -2.218 Z M 1.984 -0.062 C 1.656 -0.062 1.234 -0.25 1.093 -0.812 C 1 -1.218 1 -1.796 1 -2.312 C 1 -2.828 1 -3.359 1.093 -3.734 C 1.25 -4.281 1.687 -4.437 1.984 -4.437 C 2.359 -4.437 2.718 -4.203 2.843 -3.796 C 2.953 -3.421 2.968 -2.921 2.968 -2.312 C 2.968 -1.796 2.968 -1.281 2.875 -0.843 C 2.734 -0.203 2.265 -0.062 1.984 -0.062 Z M 1.984 -0.062 "></path>
</g>
<g id="glyph-6-0">
<path d="M 5.781 -2.968 C 5.781 -4.062 4.984 -4.906 3.75 -4.906 C 2.093 -4.906 0.484 -3.343 0.484 -1.765 C 0.484 -0.640 1.312 0.140 2.515 0.140 C 4.171 0.140 5.781 -1.375 5.781 -2.968 Z M 2.562 -0.093 C 1.828 -0.093 1.203 -0.593 1.203 -1.625 C 1.203 -1.984 1.296 -2.968 1.937 -3.765 C 2.406 -4.328 3.078 -4.671 3.703 -4.671 C 4.421 -4.671 5.093 -4.218 5.093 -3.203 C 5.093 -2.703 4.875 -1.671 4.234 -0.937 C 3.75 -0.375 3.109 -0.093 2.562 -0.093 Z M 2.562 -0.093 "></path>
</g>
</g>
</defs>
<path fill="none" stroke-width="0.398" stroke-linecap="butt" stroke-linejoin="miter" stroke="rgb(64.999%, 64.999%, 64.999%)" stroke-opacity="1" stroke-miterlimit="10" d="M 14.174 -0.000 L 14.174 139.467 " transform="matrix(1, 0, 0, -1, 241.525, 307.671)"></path>
<path fill="none" stroke-width="0.398" stroke-linecap="butt" stroke-linejoin="miter" stroke="rgb(64.999%, 64.999%, 64.999%)" stroke-opacity="1" stroke-miterlimit="10" d="M 28.346 -0.000 L 28.346 139.467 " transform="matrix(1, 0, 0, -1, 241.525, 307.671)"></path>
<path fill="none" stroke-width="0.398" stroke-linecap="butt" stroke-linejoin="miter" stroke="rgb(64.999%, 64.999%, 64.999%)" stroke-opacity="1" stroke-miterlimit="10" d="M 42.521 -0.000 L 42.521 139.467 " transform="matrix(1, 0, 0, -1, 241.525, 307.671)"></path>
<path fill="none" stroke-width="0.398" stroke-linecap="butt" stroke-linejoin="miter" stroke="rgb(64.999%, 64.999%, 64.999%)" stroke-opacity="1" stroke-miterlimit="10" d="M 56.693 -0.000 L 56.693 139.467 " transform="matrix(1, 0, 0, -1, 241.525, 307.671)"></path>
<path fill="none" stroke-width="0.398" stroke-linecap="butt" stroke-linejoin="miter" stroke="rgb(64.999%, 64.999%, 64.999%)" stroke-opacity="1" stroke-miterlimit="10" d="M 70.865 -0.000 L 70.865 139.467 " transform="matrix(1, 0, 0, -1, 241.525, 307.671)"></path>
<path fill="none" stroke-width="0.398" stroke-linecap="butt" stroke-linejoin="miter" stroke="rgb(64.999%, 64.999%, 64.999%)" stroke-opacity="1" stroke-miterlimit="10" d="M 85.041 -0.000 L 85.041 139.467 " transform="matrix(1, 0, 0, -1, 241.525, 307.671)"></path>
<path fill="none" stroke-width="0.398" stroke-linecap="butt" stroke-linejoin="miter" stroke="rgb(64.999%, 64.999%, 64.999%)" stroke-opacity="1" stroke-miterlimit="10" d="M 99.213 -0.000 L 99.213 139.467 " transform="matrix(1, 0, 0, -1, 241.525, 307.671)"></path>
<path fill="none" stroke-width="0.398" stroke-linecap="butt" stroke-linejoin="miter" stroke="rgb(64.999%, 64.999%, 64.999%)" stroke-opacity="1" stroke-miterlimit="10" d="M 113.389 -0.000 L 113.389 139.467 " transform="matrix(1, 0, 0, -1, 241.525, 307.671)"></path>
<path fill="none" stroke-width="0.398" stroke-linecap="butt" stroke-linejoin="miter" stroke="rgb(64.999%, 64.999%, 64.999%)" stroke-opacity="1" stroke-miterlimit="10" d="M 127.560 -0.000 L 127.560 139.467 " transform="matrix(1, 0, 0, -1, 241.525, 307.671)"></path>
<path fill="none" stroke-width="0.398" stroke-linecap="butt" stroke-linejoin="miter" stroke="rgb(64.999%, 64.999%, 64.999%)" stroke-opacity="1" stroke-miterlimit="10" d="M 141.732 -0.000 L 141.732 139.467 " transform="matrix(1, 0, 0, -1, 241.525, 307.671)"></path>
<path fill="none" stroke-width="0.398" stroke-linecap="butt" stroke-linejoin="miter" stroke="rgb(64.999%, 64.999%, 64.999%)" stroke-opacity="1" stroke-miterlimit="10" d="M -0.001 8.503 L 147.404 8.503 " transform="matrix(1, 0, 0, -1, 241.525, 307.671)"></path>
<path fill="none" stroke-width="0.398" stroke-linecap="butt" stroke-linejoin="miter" stroke="rgb(64.999%, 64.999%, 64.999%)" stroke-opacity="1" stroke-miterlimit="10" d="M -0.001 17.006 L 147.404 17.006 " transform="matrix(1, 0, 0, -1, 241.525, 307.671)"></path>
<path fill="none" stroke-width="0.398" stroke-linecap="butt" stroke-linejoin="miter" stroke="rgb(64.999%, 64.999%, 64.999%)" stroke-opacity="1" stroke-miterlimit="10" d="M -0.001 25.510 L 147.404 25.510 " transform="matrix(1, 0, 0, -1, 241.525, 307.671)"></path>
<path fill="none" stroke-width="0.398" stroke-linecap="butt" stroke-linejoin="miter" stroke="rgb(64.999%, 64.999%, 64.999%)" stroke-opacity="1" stroke-miterlimit="10" d="M -0.001 34.014 L 147.404 34.014 " transform="matrix(1, 0, 0, -1, 241.525, 307.671)"></path>
<path fill="none" stroke-width="0.398" stroke-linecap="butt" stroke-linejoin="miter" stroke="rgb(64.999%, 64.999%, 64.999%)" stroke-opacity="1" stroke-miterlimit="10" d="M -0.001 42.522 L 147.404 42.522 " transform="matrix(1, 0, 0, -1, 241.525, 307.671)"></path>
<path fill="none" stroke-width="0.398" stroke-linecap="butt" stroke-linejoin="miter" stroke="rgb(64.999%, 64.999%, 64.999%)" stroke-opacity="1" stroke-miterlimit="10" d="M -0.001 51.026 L 147.404 51.026 " transform="matrix(1, 0, 0, -1, 241.525, 307.671)"></path>
<path fill="none" stroke-width="0.398" stroke-linecap="butt" stroke-linejoin="miter" stroke="rgb(64.999%, 64.999%, 64.999%)" stroke-opacity="1" stroke-miterlimit="10" d="M -0.001 59.530 L 147.404 59.530 " transform="matrix(1, 0, 0, -1, 241.525, 307.671)"></path>
<path fill="none" stroke-width="0.398" stroke-linecap="butt" stroke-linejoin="miter" stroke="rgb(64.999%, 64.999%, 64.999%)" stroke-opacity="1" stroke-miterlimit="10" d="M -0.001 68.034 L 147.404 68.034 " transform="matrix(1, 0, 0, -1, 241.525, 307.671)"></path>
<path fill="none" stroke-width="0.398" stroke-linecap="butt" stroke-linejoin="miter" stroke="rgb(64.999%, 64.999%, 64.999%)" stroke-opacity="1" stroke-miterlimit="10" d="M -0.001 76.538 L 147.404 76.538 " transform="matrix(1, 0, 0, -1, 241.525, 307.671)"></path>
<path fill="none" stroke-width="0.398" stroke-linecap="butt" stroke-linejoin="miter" stroke="rgb(64.999%, 64.999%, 64.999%)" stroke-opacity="1" stroke-miterlimit="10" d="M -0.001 85.042 L 147.404 85.042 " transform="matrix(1, 0, 0, -1, 241.525, 307.671)"></path>
<path fill="none" stroke-width="0.398" stroke-linecap="butt" stroke-linejoin="miter" stroke="rgb(64.999%, 64.999%, 64.999%)" stroke-opacity="1" stroke-miterlimit="10" d="M -0.001 93.546 L 147.404 93.546 " transform="matrix(1, 0, 0, -1, 241.525, 307.671)"></path>
<path fill="none" stroke-width="0.398" stroke-linecap="butt" stroke-linejoin="miter" stroke="rgb(64.999%, 64.999%, 64.999%)" stroke-opacity="1" stroke-miterlimit="10" d="M -0.001 102.049 L 147.404 102.049 " transform="matrix(1, 0, 0, -1, 241.525, 307.671)"></path>
<path fill="none" stroke-width="0.398" stroke-linecap="butt" stroke-linejoin="miter" stroke="rgb(64.999%, 64.999%, 64.999%)" stroke-opacity="1" stroke-miterlimit="10" d="M -0.001 110.553 L 147.404 110.553 " transform="matrix(1, 0, 0, -1, 241.525, 307.671)"></path>
<path fill="none" stroke-width="0.398" stroke-linecap="butt" stroke-linejoin="miter" stroke="rgb(64.999%, 64.999%, 64.999%)" stroke-opacity="1" stroke-miterlimit="10" d="M -0.001 119.057 L 147.404 119.057 " transform="matrix(1, 0, 0, -1, 241.525, 307.671)"></path>
<path fill="none" stroke-width="0.398" stroke-linecap="butt" stroke-linejoin="miter" stroke="rgb(64.999%, 64.999%, 64.999%)" stroke-opacity="1" stroke-miterlimit="10" d="M -0.001 127.561 L 147.404 127.561 " transform="matrix(1, 0, 0, -1, 241.525, 307.671)"></path>
<path fill="none" stroke-width="0.398" stroke-linecap="butt" stroke-linejoin="miter" stroke="rgb(64.999%, 64.999%, 64.999%)" stroke-opacity="1" stroke-miterlimit="10" d="M -0.001 136.065 L 147.404 136.065 " transform="matrix(1, 0, 0, -1, 241.525, 307.671)"></path>
<path fill="none" stroke-width="0.797" stroke-linecap="butt" stroke-linejoin="miter" stroke="rgb(0%, 0%, 0%)" stroke-opacity="1" stroke-miterlimit="10" d="M -0.001 -0.000 L 151.795 -0.000 " transform="matrix(1, 0, 0, -1, 241.525, 307.671)"></path>
<path fill-rule="nonzero" fill="rgb(0%, 0%, 0%)" fill-opacity="1" stroke-width="0.797" stroke-linecap="butt" stroke-linejoin="miter" stroke="rgb(0%, 0%, 0%)" stroke-opacity="1" stroke-miterlimit="10" d="M 5.439 -0.000 L 1.287 1.569 L 2.662 -0.000 L 1.287 -1.571 Z M 5.439 -0.000 " transform="matrix(1, 0, 0, -1, 390.856, 307.671)"></path>
<g fill="rgb(0%, 0%, 0%)" fill-opacity="1">
<use xlink:href="#glyph-1-1" x="401.149" y="309.815"></use>
</g>
<path fill="none" stroke-width="0.797" stroke-linecap="butt" stroke-linejoin="miter" stroke="rgb(0%, 0%, 0%)" stroke-opacity="1" stroke-miterlimit="10" d="M -0.001 -0.000 L -0.001 144.710 " transform="matrix(1, 0, 0, -1, 241.525, 307.671)"></path>
<path fill-rule="nonzero" fill="rgb(0%, 0%, 0%)" fill-opacity="1" stroke-width="0.797" stroke-linecap="butt" stroke-linejoin="miter" stroke="rgb(0%, 0%, 0%)" stroke-opacity="1" stroke-miterlimit="10" d="M 5.439 0.001 L 1.287 1.571 L 2.662 0.001 L 1.287 -1.568 Z M 5.439 0.001 " transform="matrix(0, -1, -1, 0, 241.525, 165.424)"></path>
<g fill="rgb(0%, 0%, 0%)" fill-opacity="1">
<use xlink:href="#glyph-1-0" x="238.904" y="153.195"></use>
</g>
<g fill="rgb(0%, 0%, 0%)" fill-opacity="1">
<use xlink:href="#glyph-4-2" x="253.713" y="315.684"></use>
</g>
<g fill="rgb(0%, 0%, 0%)" fill-opacity="1">
<use xlink:href="#glyph-4-4" x="267.886" y="315.684"></use>
</g>
<g fill="rgb(0%, 0%, 0%)" fill-opacity="1">
<use xlink:href="#glyph-4-1" x="282.059" y="315.684"></use>
</g>
<g fill="rgb(0%, 0%, 0%)" fill-opacity="1">
<use xlink:href="#glyph-4-5" x="296.233" y="315.684"></use>
</g>
<g fill="rgb(0%, 0%, 0%)" fill-opacity="1">
<use xlink:href="#glyph-4-3" x="310.406" y="315.684"></use>
</g>
<g fill="rgb(0%, 0%, 0%)" fill-opacity="1">
<use xlink:href="#glyph-4-6" x="324.579" y="315.684"></use>
</g>
<g fill="rgb(0%, 0%, 0%)" fill-opacity="1">
<use xlink:href="#glyph-4-7" x="338.752" y="315.684"></use>
</g>
<g fill="rgb(0%, 0%, 0%)" fill-opacity="1">
<use xlink:href="#glyph-4-0" x="352.925" y="315.684"></use>
</g>
<g fill="rgb(0%, 0%, 0%)" fill-opacity="1">
<use xlink:href="#glyph-4-8" x="367.099" y="315.684"></use>
</g>
<g fill="rgb(0%, 0%, 0%)" fill-opacity="1">
<use xlink:href="#glyph-4-2" x="379.286" y="315.684"></use>
<use xlink:href="#glyph-4-9" x="383.257" y="315.684"></use>
</g>
<g fill="rgb(0%, 0%, 0%)" fill-opacity="1">
<use xlink:href="#glyph-4-4" x="234.035" y="292.91"></use>
</g>
<g fill="rgb(0%, 0%, 0%)" fill-opacity="1">
<use xlink:href="#glyph-4-5" x="234.035" y="275.902"></use>
</g>
<g fill="rgb(0%, 0%, 0%)" fill-opacity="1">
<use xlink:href="#glyph-4-6" x="234.035" y="258.894"></use>
</g>
<g fill="rgb(0%, 0%, 0%)" fill-opacity="1">
<use xlink:href="#glyph-4-0" x="234.035" y="241.886"></use>
</g>
<g fill="rgb(0%, 0%, 0%)" fill-opacity="1">
<use xlink:href="#glyph-4-2" x="230.064" y="224.878"></use>
<use xlink:href="#glyph-4-9" x="234.035" y="224.878"></use>
</g>
<g fill="rgb(0%, 0%, 0%)" fill-opacity="1">
<use xlink:href="#glyph-4-2" x="230.064" y="207.87"></use>
<use xlink:href="#glyph-4-4" x="234.035" y="207.87"></use>
</g>
<g fill="rgb(0%, 0%, 0%)" fill-opacity="1">
<use xlink:href="#glyph-4-2" x="230.064" y="190.862"></use>
<use xlink:href="#glyph-4-5" x="234.035" y="190.862"></use>
</g>
<g fill="rgb(0%, 0%, 0%)" fill-opacity="1">
<use xlink:href="#glyph-4-2" x="230.064" y="173.854"></use>
<use xlink:href="#glyph-4-6" x="234.035" y="173.854"></use>
</g>
<g fill="rgb(0%, 0%, 0%)" fill-opacity="1">
<use xlink:href="#glyph-6-0" x="231.732" y="315.955"></use>
</g>
<path fill-rule="nonzero" fill="rgb(0%, 0%, 0%)" fill-opacity="1" d="M 244.015 180.109 C 244.015 178.734 242.902 177.617 241.523 177.617 C 240.148 177.617 239.035 178.734 239.035 180.109 C 239.035 181.484 240.148 182.601 241.523 182.601 C 242.902 182.601 244.015 181.484 244.015 180.109 Z M 244.015 180.109 "></path>
<path fill-rule="nonzero" fill="rgb(0%, 0%, 0%)" fill-opacity="1" d="M 385.75 239.636 C 385.75 238.261 384.632 237.148 383.257 237.148 C 381.882 237.148 380.769 238.261 380.769 239.636 C 380.769 241.011 381.882 242.128 383.257 242.128 C 384.632 242.128 385.75 241.011 385.75 239.636 Z M 385.75 239.636 "></path>
<path fill-rule="nonzero" fill="rgb(0%, 0%, 0%)" fill-opacity="1" d="M 385.75 282.160 C 385.75 280.781 384.632 279.667 383.257 279.667 C 381.882 279.667 380.769 280.781 380.769 282.160 C 380.769 283.535 381.882 284.648 383.257 284.648 C 384.632 284.648 385.75 283.535 385.75 282.160 Z M 385.75 282.160 "></path>
</svg>
