<?xml version="1.0" encoding="UTF-8"?>
<svg xmlns:xlink="http://www.w3.org/1999/xlink" xmlns="http://www.w3.org/2000/svg" width="372" height="130" viewBox="196.59 93.91 218.83 76.71">
<defs>
<g>
<g id="glyph-1-0">
<path d="M 2.890 -3.515 C 3.703 -3.781 4.281 -4.468 4.281 -5.265 C 4.281 -6.078 3.406 -6.640 2.453 -6.640 C 1.453 -6.640 0.687 -6.046 0.687 -5.281 C 0.687 -4.953 0.906 -4.765 1.203 -4.765 C 1.5 -4.765 1.703 -4.984 1.703 -5.281 C 1.703 -5.765 1.234 -5.765 1.093 -5.765 C 1.390 -6.265 2.046 -6.390 2.406 -6.390 C 2.828 -6.390 3.375 -6.171 3.375 -5.281 C 3.375 -5.156 3.343 -4.578 3.093 -4.140 C 2.796 -3.656 2.453 -3.625 2.203 -3.625 C 2.125 -3.609 1.890 -3.593 1.812 -3.593 C 1.734 -3.578 1.671 -3.562 1.671 -3.468 C 1.671 -3.359 1.734 -3.359 1.906 -3.359 L 2.343 -3.359 C 3.156 -3.359 3.531 -2.687 3.531 -1.703 C 3.531 -0.343 2.843 -0.062 2.406 -0.062 C 1.968 -0.062 1.218 -0.234 0.875 -0.812 C 1.218 -0.765 1.531 -0.984 1.531 -1.359 C 1.531 -1.718 1.265 -1.921 0.984 -1.921 C 0.734 -1.921 0.421 -1.781 0.421 -1.343 C 0.421 -0.437 1.343 0.218 2.437 0.218 C 3.656 0.218 4.562 -0.687 4.562 -1.703 C 4.562 -2.515 3.921 -3.296 2.890 -3.515 Z M 2.890 -3.515 "></path>
</g>
<g id="glyph-1-1">
<path d="M 4.578 -3.187 C 4.578 -3.984 4.531 -4.781 4.187 -5.515 C 3.734 -6.484 2.906 -6.640 2.5 -6.640 C 1.890 -6.640 1.171 -6.375 0.75 -5.453 C 0.437 -4.765 0.390 -3.984 0.390 -3.187 C 0.390 -2.437 0.421 -1.546 0.843 -0.781 C 1.265 0.015 2 0.218 2.484 0.218 C 3.015 0.218 3.781 0.015 4.218 -0.937 C 4.531 -1.625 4.578 -2.406 4.578 -3.187 Z M 2.484 0 C 2.093 0 1.5 -0.25 1.328 -1.203 C 1.218 -1.796 1.218 -2.718 1.218 -3.312 C 1.218 -3.953 1.218 -4.609 1.296 -5.140 C 1.484 -6.328 2.234 -6.421 2.484 -6.421 C 2.812 -6.421 3.468 -6.234 3.656 -5.25 C 3.765 -4.687 3.765 -3.937 3.765 -3.312 C 3.765 -2.562 3.765 -1.890 3.656 -1.25 C 3.5 -0.296 2.937 0 2.484 0 Z M 2.484 0 "></path>
</g>
<g id="glyph-1-2">
<path d="M 2.937 -6.375 C 2.937 -6.625 2.937 -6.640 2.703 -6.640 C 2.078 -6 1.203 -6 0.890 -6 L 0.890 -5.687 C 1.093 -5.687 1.671 -5.687 2.187 -5.953 L 2.187 -0.781 C 2.187 -0.421 2.156 -0.312 1.265 -0.312 L 0.953 -0.312 L 0.953 0 C 1.296 -0.031 2.156 -0.031 2.562 -0.031 C 2.953 -0.031 3.828 -0.031 4.171 0 L 4.171 -0.312 L 3.859 -0.312 C 2.953 -0.312 2.937 -0.421 2.937 -0.781 Z M 2.937 -6.375 "></path>
</g>
<g id="glyph-1-3">
<path d="M 1.265 -0.765 L 2.328 -1.796 C 3.875 -3.171 4.468 -3.703 4.468 -4.703 C 4.468 -5.843 3.578 -6.640 2.359 -6.640 C 1.234 -6.640 0.5 -5.718 0.5 -4.828 C 0.5 -4.281 1 -4.281 1.031 -4.281 C 1.203 -4.281 1.546 -4.390 1.546 -4.812 C 1.546 -5.062 1.359 -5.328 1.015 -5.328 C 0.937 -5.328 0.921 -5.328 0.890 -5.312 C 1.109 -5.968 1.656 -6.328 2.234 -6.328 C 3.140 -6.328 3.562 -5.515 3.562 -4.703 C 3.562 -3.906 3.078 -3.125 2.515 -2.5 L 0.609 -0.375 C 0.5 -0.265 0.5 -0.234 0.5 0 L 4.203 0 L 4.468 -1.734 L 4.234 -1.734 C 4.171 -1.437 4.109 -1 4 -0.843 C 3.937 -0.765 3.281 -0.765 3.062 -0.765 Z M 1.265 -0.765 "></path>
</g>
<g id="glyph-1-4">
<path d="M 2.937 -1.640 L 2.937 -0.781 C 2.937 -0.421 2.906 -0.312 2.171 -0.312 L 1.968 -0.312 L 1.968 0 C 2.375 -0.031 2.890 -0.031 3.312 -0.031 C 3.734 -0.031 4.25 -0.031 4.671 0 L 4.671 -0.312 L 4.453 -0.312 C 3.718 -0.312 3.703 -0.421 3.703 -0.781 L 3.703 -1.640 L 4.687 -1.640 L 4.687 -1.953 L 3.703 -1.953 L 3.703 -6.484 C 3.703 -6.687 3.703 -6.75 3.531 -6.75 C 3.453 -6.75 3.421 -6.75 3.343 -6.625 L 0.281 -1.953 L 0.281 -1.640 Z M 2.984 -1.953 L 0.562 -1.953 L 2.984 -5.671 Z M 2.984 -1.953 "></path>
</g>
<g id="glyph-1-5">
<path d="M 4.468 -2 C 4.468 -3.187 3.656 -4.187 2.578 -4.187 C 2.109 -4.187 1.671 -4.031 1.312 -3.671 L 1.312 -5.625 C 1.515 -5.562 1.843 -5.5 2.156 -5.5 C 3.390 -5.5 4.093 -6.406 4.093 -6.531 C 4.093 -6.593 4.062 -6.640 3.984 -6.640 C 3.984 -6.640 3.953 -6.640 3.906 -6.609 C 3.703 -6.515 3.218 -6.312 2.546 -6.312 C 2.156 -6.312 1.687 -6.390 1.218 -6.593 C 1.140 -6.625 1.125 -6.625 1.109 -6.625 C 1 -6.625 1 -6.546 1 -6.390 L 1 -3.437 C 1 -3.265 1 -3.187 1.140 -3.187 C 1.218 -3.187 1.234 -3.203 1.281 -3.265 C 1.390 -3.421 1.75 -3.968 2.562 -3.968 C 3.078 -3.968 3.328 -3.515 3.406 -3.328 C 3.562 -2.953 3.593 -2.578 3.593 -2.078 C 3.593 -1.718 3.593 -1.125 3.343 -0.703 C 3.109 -0.312 2.734 -0.062 2.281 -0.062 C 1.562 -0.062 0.984 -0.593 0.812 -1.171 C 0.843 -1.171 0.875 -1.156 0.984 -1.156 C 1.312 -1.156 1.484 -1.406 1.484 -1.640 C 1.484 -1.890 1.312 -2.140 0.984 -2.140 C 0.843 -2.140 0.5 -2.062 0.5 -1.609 C 0.5 -0.75 1.187 0.218 2.296 0.218 C 3.453 0.218 4.468 -0.734 4.468 -2 Z M 4.468 -2 "></path>
</g>
<g id="glyph-1-6">
<path d="M 1.312 -3.265 L 1.312 -3.515 C 1.312 -6.031 2.546 -6.390 3.062 -6.390 C 3.296 -6.390 3.718 -6.328 3.937 -5.984 C 3.781 -5.984 3.390 -5.984 3.390 -5.546 C 3.390 -5.234 3.625 -5.078 3.843 -5.078 C 4 -5.078 4.312 -5.171 4.312 -5.562 C 4.312 -6.156 3.875 -6.640 3.046 -6.640 C 1.765 -6.640 0.421 -5.359 0.421 -3.156 C 0.421 -0.484 1.578 0.218 2.5 0.218 C 3.609 0.218 4.562 -0.718 4.562 -2.031 C 4.562 -3.296 3.671 -4.25 2.562 -4.25 C 1.890 -4.25 1.515 -3.75 1.312 -3.265 Z M 2.5 -0.062 C 1.875 -0.062 1.578 -0.656 1.515 -0.812 C 1.328 -1.281 1.328 -2.078 1.328 -2.25 C 1.328 -3.031 1.656 -4.031 2.546 -4.031 C 2.718 -4.031 3.171 -4.031 3.484 -3.406 C 3.656 -3.046 3.656 -2.531 3.656 -2.046 C 3.656 -1.562 3.656 -1.062 3.484 -0.703 C 3.187 -0.109 2.734 -0.062 2.5 -0.062 Z M 2.5 -0.062 "></path>
</g>
</g>
</defs>
<path fill="none" stroke-width="0.797" stroke-linecap="butt" stroke-linejoin="miter" stroke="rgb(0%, 0%, 0%)" stroke-opacity="1" stroke-miterlimit="10" d="M -12.471 0.001 L 199.563 0.001 " transform="matrix(1, 0, 0, -1, 212.456, 154.451)"></path>
<path fill="none" stroke-width="0.75" stroke-linecap="butt" stroke-linejoin="miter" stroke="rgb(0%, 0%, 0%)" stroke-opacity="1" stroke-miterlimit="10" d="M 0.001 2.693 L 0.001 -2.693 " transform="matrix(1, 0, 0, -1, 212.456, 154.451)"></path>
<g fill="rgb(0%, 0%, 0%)" fill-opacity="1">
<use xlink:href="#glyph-1-0" x="207.475" y="167.399"></use>
<use xlink:href="#glyph-1-1" x="212.456" y="167.399"></use>
</g>
<path fill="none" stroke-width="0.75" stroke-linecap="butt" stroke-linejoin="miter" stroke="rgb(0%, 0%, 0%)" stroke-opacity="1" stroke-miterlimit="10" d="M 31.180 2.693 L 31.180 -2.693 " transform="matrix(1, 0, 0, -1, 212.456, 154.451)"></path>
<g fill="rgb(0%, 0%, 0%)" fill-opacity="1">
<use xlink:href="#glyph-1-0" x="238.656" y="167.399"></use>
<use xlink:href="#glyph-1-2" x="243.637" y="167.399"></use>
</g>
<path fill="none" stroke-width="0.75" stroke-linecap="butt" stroke-linejoin="miter" stroke="rgb(0%, 0%, 0%)" stroke-opacity="1" stroke-miterlimit="10" d="M 62.364 2.693 L 62.364 -2.693 " transform="matrix(1, 0, 0, -1, 212.456, 154.451)"></path>
<g fill="rgb(0%, 0%, 0%)" fill-opacity="1">
<use xlink:href="#glyph-1-0" x="269.837" y="167.399"></use>
<use xlink:href="#glyph-1-3" x="274.818" y="167.399"></use>
</g>
<path fill="none" stroke-width="0.75" stroke-linecap="butt" stroke-linejoin="miter" stroke="rgb(0%, 0%, 0%)" stroke-opacity="1" stroke-miterlimit="10" d="M 93.544 2.693 L 93.544 -2.693 " transform="matrix(1, 0, 0, -1, 212.456, 154.451)"></path>
<g fill="rgb(0%, 0%, 0%)" fill-opacity="1">
<use xlink:href="#glyph-1-0" x="301.019" y="167.399"></use>
<use xlink:href="#glyph-1-0" x="306.000" y="167.399"></use>
</g>
<path fill="none" stroke-width="0.75" stroke-linecap="butt" stroke-linejoin="miter" stroke="rgb(0%, 0%, 0%)" stroke-opacity="1" stroke-miterlimit="10" d="M 124.727 2.693 L 124.727 -2.693 " transform="matrix(1, 0, 0, -1, 212.456, 154.451)"></path>
<g fill="rgb(0%, 0%, 0%)" fill-opacity="1">
<use xlink:href="#glyph-1-0" x="332.2" y="167.399"></use>
<use xlink:href="#glyph-1-4" x="337.181" y="167.399"></use>
</g>
<path fill="none" stroke-width="0.75" stroke-linecap="butt" stroke-linejoin="miter" stroke="rgb(0%, 0%, 0%)" stroke-opacity="1" stroke-miterlimit="10" d="M 155.907 2.693 L 155.907 -2.693 " transform="matrix(1, 0, 0, -1, 212.456, 154.451)"></path>
<g fill="rgb(0%, 0%, 0%)" fill-opacity="1">
<use xlink:href="#glyph-1-0" x="363.381" y="167.399"></use>
<use xlink:href="#glyph-1-5" x="368.362" y="167.399"></use>
</g>
<path fill="none" stroke-width="0.75" stroke-linecap="butt" stroke-linejoin="miter" stroke="rgb(0%, 0%, 0%)" stroke-opacity="1" stroke-miterlimit="10" d="M 187.090 2.693 L 187.090 -2.693 " transform="matrix(1, 0, 0, -1, 212.456, 154.451)"></path>
<g fill="rgb(0%, 0%, 0%)" fill-opacity="1">
<use xlink:href="#glyph-1-0" x="394.562" y="167.399"></use>
<use xlink:href="#glyph-1-6" x="399.543" y="167.399"></use>
</g>
<path fill-rule="nonzero" fill="rgb(0%, 0%, 0%)" fill-opacity="1" d="M 247.324 143.679 C 247.324 141.644 245.671 139.992 243.636 139.992 C 241.601 139.992 239.953 141.644 239.953 143.679 C 239.953 145.714 241.601 147.363 243.636 147.363 C 245.671 147.363 247.324 145.714 247.324 143.679 Z M 247.324 143.679 "></path>
<path fill-rule="nonzero" fill="rgb(0%, 0%, 0%)" fill-opacity="1" d="M 247.324 132.906 C 247.324 130.871 245.671 129.222 243.636 129.222 C 241.601 129.222 239.953 130.871 239.953 132.906 C 239.953 134.941 241.601 136.593 243.636 136.593 C 245.671 136.593 247.324 134.941 247.324 132.906 Z M 247.324 132.906 "></path>
<path fill-rule="nonzero" fill="rgb(0%, 0%, 0%)" fill-opacity="1" d="M 278.503 143.679 C 278.503 141.644 276.855 139.992 274.820 139.992 C 272.785 139.992 271.132 141.644 271.132 143.679 C 271.132 145.714 272.785 147.363 274.820 147.363 C 276.855 147.363 278.503 145.714 278.503 143.679 Z M 278.503 143.679 "></path>
<path fill-rule="nonzero" fill="rgb(0%, 0%, 0%)" fill-opacity="1" d="M 278.503 132.906 C 278.503 130.871 276.855 129.222 274.820 129.222 C 272.785 129.222 271.132 130.871 271.132 132.906 C 271.132 134.941 272.785 136.593 274.820 136.593 C 276.855 136.593 278.503 134.941 278.503 132.906 Z M 278.503 132.906 "></path>
<path fill-rule="nonzero" fill="rgb(0%, 0%, 0%)" fill-opacity="1" d="M 278.503 122.136 C 278.503 120.101 276.855 118.449 274.820 118.449 C 272.785 118.449 271.132 120.101 271.132 122.136 C 271.132 124.171 272.785 125.820 274.820 125.820 C 276.855 125.820 278.503 124.171 278.503 122.136 Z M 278.503 122.136 "></path>
<path fill-rule="nonzero" fill="rgb(0%, 0%, 0%)" fill-opacity="1" d="M 278.503 111.363 C 278.503 109.328 276.855 107.679 274.820 107.679 C 272.785 107.679 271.132 109.328 271.132 111.363 C 271.132 113.398 272.785 115.046 274.820 115.046 C 276.855 115.046 278.503 113.398 278.503 111.363 Z M 278.503 111.363 "></path>
<path fill-rule="nonzero" fill="rgb(0%, 0%, 0%)" fill-opacity="1" d="M 278.503 100.589 C 278.503 98.554 276.855 96.906 274.820 96.906 C 272.785 96.906 271.132 98.554 271.132 100.589 C 271.132 102.625 272.785 104.277 274.820 104.277 C 276.855 104.277 278.503 102.625 278.503 100.589 Z M 278.503 100.589 "></path>
<path fill-rule="nonzero" fill="rgb(0%, 0%, 0%)" fill-opacity="1" d="M 309.687 143.679 C 309.687 141.644 308.035 139.992 306 139.992 C 303.964 139.992 302.316 141.644 302.316 143.679 C 302.316 145.714 303.964 147.363 306 147.363 C 308.035 147.363 309.687 145.714 309.687 143.679 Z M 309.687 143.679 "></path>
<path fill-rule="nonzero" fill="rgb(0%, 0%, 0%)" fill-opacity="1" d="M 309.687 132.906 C 309.687 130.871 308.035 129.222 306 129.222 C 303.964 129.222 302.316 130.871 302.316 132.906 C 302.316 134.941 303.964 136.593 306 136.593 C 308.035 136.593 309.687 134.941 309.687 132.906 Z M 309.687 132.906 "></path>
<path fill-rule="nonzero" fill="rgb(0%, 0%, 0%)" fill-opacity="1" d="M 309.687 122.136 C 309.687 120.101 308.035 118.449 306 118.449 C 303.964 118.449 302.316 120.101 302.316 122.136 C 302.316 124.171 303.964 125.820 306 125.820 C 308.035 125.820 309.687 124.171 309.687 122.136 Z M 309.687 122.136 "></path>
<path fill-rule="nonzero" fill="rgb(0%, 0%, 0%)" fill-opacity="1" d="M 309.687 111.363 C 309.687 109.328 308.035 107.679 306 107.679 C 303.964 107.679 302.316 109.328 302.316 111.363 C 302.316 113.398 303.964 115.046 306 115.046 C 308.035 115.046 309.687 113.398 309.687 111.363 Z M 309.687 111.363 "></path>
<path fill-rule="nonzero" fill="rgb(0%, 0%, 0%)" fill-opacity="1" d="M 340.867 143.679 C 340.867 141.644 339.218 139.992 337.183 139.992 C 335.148 139.992 333.496 141.644 333.496 143.679 C 333.496 145.714 335.148 147.363 337.183 147.363 C 339.218 147.363 340.867 145.714 340.867 143.679 Z M 340.867 143.679 "></path>
<path fill-rule="nonzero" fill="rgb(0%, 0%, 0%)" fill-opacity="1" d="M 340.867 132.906 C 340.867 130.871 339.218 129.222 337.183 129.222 C 335.148 129.222 333.496 130.871 333.496 132.906 C 333.496 134.941 335.148 136.593 337.183 136.593 C 339.218 136.593 340.867 134.941 340.867 132.906 Z M 340.867 132.906 "></path>
<path fill-rule="nonzero" fill="rgb(0%, 0%, 0%)" fill-opacity="1" d="M 340.867 122.136 C 340.867 120.101 339.218 118.449 337.183 118.449 C 335.148 118.449 333.496 120.101 333.496 122.136 C 333.496 124.171 335.148 125.820 337.183 125.820 C 339.218 125.820 340.867 124.171 340.867 122.136 Z M 340.867 122.136 "></path>
<path fill-rule="nonzero" fill="rgb(0%, 0%, 0%)" fill-opacity="1" d="M 372.050 143.679 C 372.050 141.644 370.398 139.992 368.363 139.992 C 366.328 139.992 364.679 141.644 364.679 143.679 C 364.679 145.714 366.328 147.363 368.363 147.363 C 370.398 147.363 372.050 145.714 372.050 143.679 Z M 372.050 143.679 "></path>
</svg>
